P1
20 20
00000000000000000000
00001110000000000000
00011110000000000000
00110011000000000000
00010110000000000000
00001110000000000000
00000100000000000000
00000000000000000000
00000000000000000000
00000000000000000000
00000000000000000000
00000000000000000000
00000000000000000000
00000000000000000000
00000000000000000000
00000000000000000000
00000000000000000000
00000000000000000000
00000000000000000000
00000000000000000000
