P1
20 20
11111111111111111111
11111111111111111111
11110001111111111111
11100100111111111111
11101100111111111111
11110011111111111111
11111111111111111111
11111111111111111111
11111111111111111111
11111111111111111111
11111111111111111111
11111111111111111111
11111111111111111111
11111111111111111111
11111111111111111111
11111111111111111111
11111111111111111111
11111111111111111111
11111111111111111111
11111111111111111111
