<?xml version="1.0" encoding="utf-8"?>
<!-- Generator: Adobe Illustrator 12.0.1, SVG Export Plug-In . SVG Version: 6.00 Build 51448)  -->
<!DOCTYPE svg PUBLIC "-//W3C//DTD SVG 1.1//EN" "http://www.w3.org/Graphics/SVG/1.1/DTD/svg11.dtd" [
	<!ENTITY ns_svg "http://www.w3.org/2000/svg">
	<!ENTITY ns_xlink "http://www.w3.org/1999/xlink">
]>
<svg  version="1.1" id="Layer_2" xmlns="&ns_svg;" xmlns:xlink="&ns_xlink;" width="141.716" height="141.718"
	 viewBox="0 0 141.716 141.718" overflow="visible" enable-background="new 0 0 141.716 141.718" xml:space="preserve">
<g>
	<path d="M86.634,66.379c-0.006,0.259-0.234,0.471-0.477,0.516c-0.24,0.032-0.441-0.242-0.479-0.5
		c0.002-0.195,0.203-0.391,0.477-0.259C86.429,66.156,86.624,66.292,86.634,66.379z"/>
	<path d="M73.743,99.871l-0.432,0.238c-0.213,0.745-0.773,1.874-2.499,2.733c0,0,1.67-0.06,2.442-1.688
		c-0.045,0.18-0.395,1.952-2.635,4.896c0,0,0.063,0.479,0.469,0.088C73.394,103.794,73.8,100.416,73.743,99.871z"/>
	<path d="M93.372,102.652c0.18-0.184-0.34,0.15-0.111,0.057c0.16-0.066,0.346-0.087,0.525-0.1c0.693-0.034,1.381,0.354,1.943,0.705
		l0.432-0.252c-0.932-0.591-2.291-1.093-3.203-0.163L93.372,102.652z"/>
	<path d="M98.269,106.251c0.342,0.301,0.826,0.458,1.301,0.468l0.412-0.247c-0.459,0.003-0.947-0.168-1.297-0.469L98.269,106.251z"
		/>
	<path d="M111.745,48.652c0.014-0.208-0.146-0.25-0.324-0.094c-2.473,2.252-6.869,2.32-9.881,1.345
		c-0.371-0.116-0.602,0.208-0.602,0.208C104.345,51.142,109.88,51.469,111.745,48.652z"/>
	<path d="M101.204,49.187c-0.666-0.09-0.508,0.196-0.508,0.196c0.736,0.248,1.469,0.363,2.189,0.354
		c1.48,0.486,3.084-0.055,3.084-0.055c-0.447,0.001-1.191,0.009-1.813-0.05c1.789-0.319,4.162-1.226,5.002-2.25
		C108.304,48.418,103.513,49.506,101.204,49.187z"/>
	<path d="M71.165,45.179l-0.061-0.025L71.165,45.179z"/>
	<path d="M75.624,47.226c-1.051-1.494-3.482-1.804-4.459-2.046C73.425,45.843,75.526,47.2,75.624,47.226z"/>
	<path d="M93.474,53.608c0.486,0.255,0.877-0.375,0.873-0.815c-0.004-0.308-0.418-0.846-0.902-0.767
		c-0.488,0.206-0.893,0.382-0.885,1.095C92.577,53.515,92.97,53.806,93.474,53.608z"/>
	<path d="M89.288,35.584c-0.299,0.115-0.842,0.005-0.842,0.005c0.816,1.012,1.535,0.279,1.535,0.279
		C90.353,35.383,89.288,35.584,89.288,35.584z"/>
	<path d="M82.882,37.393l-0.295,0.229c0,0-0.48-0.131-0.143,0.366c0,0,0.494,0.78,0.861,0.643c0,0,0.332-0.08-0.07-0.405
		C83.235,38.227,83.331,37.542,82.882,37.393z"/>
	<path d="M11.668,71.201c-0.623-0.503-3.967-0.677-4.797-0.742c-0.831-0.065-2.811-0.219-2.96-0.223
		c-0.242-0.029-0.457-0.033-0.627-0.233c-0.121-0.164-0.119-0.284-0.354-0.314l-0.352,0.164H2.566v0.01v-0.01
		c-0.177,0.12-0.107,0.438-0.111,0.615c0.014,0.436-0.018,0.845-0.042,1.27c-0.018,0.295,0.203,0.311,0.388,0.24
		c-0.006,0.014,0.553-0.538,0.924-0.531c1.519,0.033,5.893,0.065,6.516,0.241c1.086,0.292,1.227,1.828,0.463,2.5l-0.01,0.035
		c-0.011,0.011-0.54,0.158-0.764,0.168c-1.94-0.005-3.866-0.021-5.796-0.026c-0.249-0.007-0.449-0.059-0.629-0.224
		c-0.159-0.138-0.317-0.324-0.531-0.221v-0.014l-0.028,0.026L2.76,74.04c-0.35,0.264-0.159,0.978-0.154,1.368
		c0.009,0.272-0.11,2.048,0.24,2.166c0.194,0.077,0.542-0.404,0.685-0.586c0.476-0.138,3.535-0.145,4.507-0.171
		c1.19-0.051,2.651,0.042,3.646-0.708c0.709-0.527,0.657-1.434,0.657-2.21C12.352,72.968,12.461,71.854,11.668,71.201z
		 M3.076,71.676l0.136-0.13l0.014-0.01L3.076,71.676z M10.419,76.596c0.412-0.078,0.724-0.181,0.962-0.311
		C11.119,76.462,10.778,76.542,10.419,76.596z"/>
	<polyline fill="#323434" points="100.427,10.031 100.409,10.046 100.427,10.046 100.427,10.031 	"/>
	<line fill="#323434" x1="3.505" y1="67.091" x2="3.505" y2="67.091"/>
	<path d="M11.612,61.684c-0.161,0-2.034-0.322-2.825-0.446c-1.39-0.23-2.811-0.384-4.2-0.693c-0.258-0.046-0.371-0.169-0.484-0.385
		c-0.081-0.17-0.291-0.538-0.517-0.417H3.57l-0.194,0.124l0.033-0.015v0.015c-0.21,0.216-0.178,0.523-0.258,0.877
		c-0.064,0.431-0.113,0.879-0.178,1.293c-0.032,0.231,0.033,0.495,0.307,0.354v0.017l0.033-0.032l0.161-0.092
		c0.162-0.107,0.243-0.23,0.42-0.292c0.226-0.062,3.585,0.263,3.357,0.384c0.211-0.122-2.453,1.433-3.277,1.925
		c-0.388,0.216-0.84,0.416-1.179,0.724c-0.242,0.217-0.355,1.679-0.42,2.065c-0.129,0.585,0.145,0.585,0.226,0.585
		c0.016,0,0.032,0,0.032,0l0.872-0.585c0.307-0.124,0.646-0.094,0.985-0.063c1.695,0.124,6.524,0.448,6.621,0.585l0.161,0.309
		c0.033,0.476,0.404,0.523,0.404,0.523c0.355,0.124,0.355-0.508,0.387-0.738c0.065-0.602,0.178-1.234,0.146-1.818
		c-0.033-0.291-0.468-0.015-0.468-0.015c-0.049,0.032-0.145,0.478-0.42,0.523c-0.241,0.063-0.613,0.063-0.936,0.017
		c-0.598-0.062-4.199-0.371-4.344-0.693c1.195-0.693,6.33-3.604,6.33-3.618v0.014l0.065-0.06
		C12.839,61.747,11.709,61.684,11.612,61.684 M3.538,62.162l0.065-0.047l0.291-0.153L3.538,62.162"/>
	<polyline points="3.457,67.091 3.214,67.245 3.457,67.091 	"/>
	<path d="M106.692,21.641c-0.41,0.52-0.863,0.752-1.457,1.098l-0.012-0.001c-0.039,0.035-0.402,0.296,0.396,0.708
		c0.402,0.204,0.77,0.504,1.113,0.794c0.705,0.632,0.82-0.067,0.852-0.236c0.096-0.515,0.021-1.03,0.355-1.478
		c0.875-1.257,1.77-2.512,2.645-3.769c0.123,0.014,0.051,0.748,0.033,1.018c-0.1,0.879-0.598,5.408-0.727,6.778
		c-0.049,0.564,0.428,0.892,0.803,0.84l0.256-0.18c0.256-0.422,0.266-0.999,0.537-1.445c0.094-0.159,0.248-0.288,0.359-0.437
		c1.135-1.275,2.262-2.563,3.387-3.853c0.324-0.372,0.609-0.671,1.131-0.756l0.604-0.223c0.123-0.108,0.154-0.255-0.055-0.479
		c-0.432-0.467-1.074-0.749-1.436-1.285c-0.172-0.248-0.455-0.292-0.43-0.304c-0.035,0.024-0.582-0.087-0.357,0.62
		c0.137,0.456-0.066,1.066-0.324,1.464c-0.5,0.688-0.984,1.378-1.475,2.066c-0.193-0.274,0.172-3.309,0.23-4.25
		c0.035-0.563,0.238-1.382-0.223-1.82c-0.303-0.292-1.648-1.276-1.998-1.346l-0.326,0.153c-0.105,0.146-0.07,0.341-0.074,0.526
		c-0.006,0.293-0.041,0.587-0.119,0.877c-0.084,0.371-0.287,0.674-0.529,0.973C109.353,18.298,107.253,20.938,106.692,21.641z"/>
	<polyline fill="#323434" points="4.555,57.465 4.522,57.465 4.491,57.495 4.555,57.465 	"/>
	<path d="M13.183,59.003c0.061-0.478,0.157-0.943,0.28-1.407c0.052-0.231,0.182-0.45,0.238-0.684
		c0.121-0.459-0.116-0.477-0.339-0.384c-0.039-0.001-0.857,0.371-1.819,0.108c-0.954-0.229-5.064-1.019-5.814-1.633
		c-0.241-0.205-0.673-0.887-1.026-0.772V54.22c-0.011,0.013-0.172-0.089-0.449,1.216c-0.142,0.695-0.305,1.382-0.372,2.092
		c-0.018,0.282,0.186,0.223,0.295,0.19c0.274-0.068,0.319-0.36,0.596-0.342c0.271,0.017,5.712,0.958,6.833,1.456
		c0.432,0.194,0.698,0.607,1.037,0.906C12.938,59.991,13.155,59.21,13.183,59.003z M4.483,57.468l0.076-0.051L4.483,57.468z"/>
	<path d="M128.056,50.313c-0.441,0.308,6.984,0.261,6.832,0.316c-0.164,0.074-8.816-0.125-8.557,0.468
		c0.178,0.421,0.305,0.877,0.41,1.311c0.068,0.243,0.344,1.381,0.684,1.191c0.34-0.178,0.496-0.626,0.852-0.889
		c0.213-0.096,0.438-0.186,0.654-0.281c0,0,5.092-1.856,5.965-2.093c0.264-0.067,0.42,0.146,0.645,0.1
		c0,0.024,0.449,0.06,0.145-0.759c-0.166-0.444-0.33-0.889-0.467-1.344c-0.09-0.362-0.053-1.254-0.627-0.962v-0.012l-0.432,0.436
		c-0.076,0.059-0.91,0.554-1.086,0.612C132.116,48.77,128.056,50.313,128.056,50.313z M128.083,52.815l0.109-0.07h0.006
		L128.083,52.815z M128.224,52.722l-0.025,0.024L128.224,52.722z"/>
	<path d="M25.627,20.368c0.351,0.033,0.595,0.284,0.81,0.51c1.342,1.289,2.846,2.552,3.917,4.083
		c0.291,0.435,0.505,0.917,0.617,1.437c0.159,0.749,0.743,0.151,0.743,0.139v0.013c0.711-0.711,1.946-1.507,2.013-1.554
		c0.112-0.071,0.541-0.429,0.134-0.645h-0.01c-0.459-0.022-0.869-0.202-1.206-0.506c-1.011-1.102-3.89-4.144-4.23-4.618
		c-0.291-0.409-0.306-0.901-0.518-1.349l-0.256-0.102l0.011-0.012c-0.011,0.012-1.083,0.601-2.331,1.946
		c-0.126,0.136-0.281,0.229-0.323,0.426C24.958,20.368,25.529,20.354,25.627,20.368z"/>
	<path d="M113.147,28.477c-0.168,1.321,0.627,2.611,1.809,3.216c1.797,0.932,3.939-0.456,5.199-1.656
		c0.904-0.914,1.697-1.962,1.953-3.231c0.252-1.409-0.68-2.681-1.869-3.342c-1.875-1.034-4.018,0.429-5.314,1.688
		C114.007,26.044,113.298,27.205,113.147,28.477z M117.114,26.23c0.533-0.467,3.504-3.078,3.707-1.146
		c0.063,0.639-0.574,1.336-0.932,1.794c-0.617,0.758-1.332,1.444-2.016,2.14c-0.217,0.204-0.459,0.47-0.711,0.711
		c-0.246,0.214-0.459,0.394-0.674,0.534c-0.188,0.12-0.412,0.212-0.627,0.247c-0.539,0.085-1.025-0.428-1.211-0.861
		c-0.238-0.545,0.176-1.125,0.482-1.523C115.696,27.415,116.427,26.828,117.114,26.23z"/>
	<path d="M13.61,35.014c0.724-0.03,1.444,0.633,1.994,1.002c1.251,0.873,2.502,1.746,3.736,2.644
		c0.254,0.286,0.473,0.584,0.578,0.957c0.039,0.099,0.045,0.665,0.313,0.521h0.009v-0.024c0.174,0.017,1.335-1.773,1.773-2.503
		c0.389-0.626-0.561-0.492-0.894-0.643c-0.357-0.167-0.711-0.422-1.044-0.611c-0.564-0.321-1.843-0.899-0.985-1.565
		c0.552-0.222,1.419-0.121,2.016-0.142c0.974-0.052,1.994-0.129,2.949-0.427c0.376-0.113,0.903-0.349,1.025-0.751
		c0.172-0.574-0.713-0.443-0.988-0.438c-0.385,0.005-2.942-0.284-3.823-0.425c-0.43-0.083-0.536-0.051-0.498-0.464
		c0.035-0.575-0.214-1.05-0.639-1.449c-0.841-0.791-2.048-0.866-3.02-0.3c-0.013,0.014-0.818,0.461-2.439,3.017
		c-0.255,0.386-0.504,0.773-0.75,1.149C12.487,35.262,13.147,35.029,13.61,35.014z M17.549,34.769l-0.063,0.012l0.074-0.023
		L17.549,34.769z M15.194,32.574c0.181-0.281,0.371-0.558,0.638-0.773c0.704-0.207,1.545,0.536,2.009,0.949
		c0.612,0.527,0.219,1.416-0.217,1.948c-0.351,0.002-0.811-0.437-1.046-0.6c-0.407-0.267-0.797-0.534-1.188-0.785
		C15.149,33.049,14.988,32.886,15.194,32.574z"/>
	<path d="M129.698,62.061l0.014-0.01v0.01l3.541-2.571l0.836,0.446c0.717,0.274,1.564,0.146,2.244-0.16
		c0.865-0.395,1.395-1.156,1.488-2.102c0.07-0.869-0.283-1.796-0.504-2.625c-0.172-0.642-0.305-1.267-0.49-1.91
		c-0.105-0.333-0.189-0.506-0.428-0.426l-0.023,0l0.012-0.012l-0.037,0.024l-0.074,0.043h-0.018l-0.023,0.013l-0.061,0.049
		l0.014-0.014l-0.129,0.206c-0.109,0.233-0.309,0.426-0.537,0.578c-0.203,0.097-0.428,0.164-0.654,0.244
		c-0.303,0.081-4.529,1.081-5.488,1.318c-0.385-0.019-0.859,0.054-1.102-0.244c-0.184-0.213-1.043-0.022-0.734,0.475
		c0.484,0.807,0.355,1.885,0.613,2.751c0.057,0.193,0.443,0.057,0.715-0.221c0.262-0.275,0.592-0.419,0.932-0.53
		c0.389-0.13,1.744-0.613,2.088-0.534c1.014,0.279-0.402,1.305-0.746,1.619c-0.799,0.742-1.563,1.594-2.027,2.58
		c-0.176,0.375-0.453,1.18,0.205,1.207L129.698,62.061z M136.405,57.499l-0.111,0.044L136.405,57.499z M135.901,55.585l0.098-0.049
		L135.901,55.585c0.475-0.004,0.605,0.062,0.707,0.504c0.117,0.481,0.238,1.011-0.164,1.37c-0.189,0.082-0.402,0.176-0.627,0.233
		l-0.41,0.1c-0.398,0.078-0.803,0.082-1.121-0.034c-0.393-0.145-0.992-1.237-0.719-1.646
		C134.335,55.931,135.128,55.763,135.901,55.585z M133.55,56.074l-0.014,0.014l-0.061,0.035L133.55,56.074z M133.448,56.131h0.027
		l-0.041,0.026L133.448,56.131z"/>
	<path d="M23.044,28.752c0.084-0.034,1.56-0.848,2.113-1.169c1.061-0.53,2.098-0.789,2.183,0.417
		c0.06,0.697-0.543,1.347-1.023,1.781c-0.838,0.729-1.912,0.938-2.974,1.161c-0.212,0.031-0.426,0.104-0.611,0.198v-0.025
		c-0.039,0.025-0.307,0.215,0.049,0.418c0.494,0.28,1.051,0.464,1.591,0.672c0.175,0.063,0.764,0.407,0.964,0.316l0.255-0.168
		c0.319-0.582,0.717-1.052,1.225-1.481c0.569-0.478,1.063-0.91,1.399-1.567c0.328-0.621,0.456-1.314,0.372-1.992
		c-0.147-1.267-1.284-2.137-2.542-2.114c-1.095,0.013-3.89,1.561-4.093,1.641c-0.554,0.222-1.125,0.306-1.514-0.181
		c-0.412-0.497,0.106-1.396,0.609-1.643c0.539-0.257,1.203-0.328,1.804-0.4c0.498-0.065,1.167-0.038,1.598-0.371
		c0.518-0.419-1.099-1.018-1.374-1.148c-0.288-0.127-0.736-0.273-0.736-0.259c-0.245-0.152-0.414,0.728-0.78,0.93
		c-0.138,0.07-1.499,0.983-1.756,1.222c-0.79,0.957-1.186,2.467-0.175,3.408C20.531,29.239,21.976,29.17,23.044,28.752z"/>
	<path d="M122.296,34.941c0.232,0.95,0.332,1.995-0.531,2.651c-1.605,0.702-2.268-1.856-2.299-2.969
		c-0.031-0.725,0.281-1.405,0.322-2.14c0.006-0.319-0.242-0.422-0.494-0.294l0.018-0.011c0,0-1.236,1.149-1.658,1.731
		c-0.266,0.363-0.668,0.696-0.248,1.048c0.672,0.557,0.984,1.077,1.24,1.906c0.406,1.333,1.648,2.143,3.063,2.053
		c0.803-0.058,1.561-0.52,2.146-1.048c0.959-0.912,1.201-2.158,0.98-3.415c-0.168-0.922-0.674-1.829-0.697-2.771
		c0.004-0.223,0.084-0.419,0.248-0.574c1.168-0.451,1.598,1.445,1.631,2.255c0.014,0.531-0.074,1.069-0.211,1.568
		c-0.043,0.143-0.211,0.398-0.008,0.416c0.469,0.046,1.92-1.334,1.998-1.379c0.529-0.409-0.354-0.991-0.568-1.388
		c-0.143-0.284-0.213-0.58-0.381-0.853c-0.096-0.203-0.24-0.377-0.359-0.575c-0.602-1.028-2.129-2.142-3.381-1.445l-0.35,0.225
		c-0.025,0.024-0.975,0.827-1.033,1.646C121.677,32.707,122.034,33.868,122.296,34.941z"/>
	<path d="M137.114,70.55c-0.025,0-1.404-0.054-1.9,0.429c-0.813,0.801-1.418,2.238-1.828,3.382
		c-0.334,0.925-0.811,1.786-1.893,1.824c-2.412-0.886-1.082-3.409-0.199-4.103c0.672-0.536,1.043-0.862,1.467-1.156
		c0,0,0.373-0.423-0.051-0.306l-3.021,0.558c0.26,0.498,0.137,1.438-0.15,2.253c-0.477,1.304-0.092,3.041,1.096,3.778
		c0.672,0.432,1.568,0.51,2.355,0.418c1.336-0.167,2.004-1.071,2.576-2.213c0.699-1.422,0.473-2.308,1.336-3.074
		c0.178-0.157,0.402-0.166,0.623-0.183c1.213,0.306,0.648,2.281,0.186,2.946c-0.309,0.435-1.645,1.315-1.521,1.328
		c0.053,0.012-0.283,0.438,0.205,0.385c0.482-0.063,1.965-0.508,2.063-0.545c0.379-0.196,0.162-0.574,0.248-1.013
		c0.043-0.308,0.229-1.357,0.256-1.577C139.099,72.508,138.544,70.721,137.114,70.55z"/>
	<path d="M30.446,16.509c0.739,0.277,1.2,0.689,1.62,1.311c0.496,0.747,1.004,1.493,1.523,2.24c0.42,0.611,0.828,1.22,1.24,1.841
		c0.102,0.287,0.158,0.581,0.161,0.89c0.009,0.22-0.135,0.474,0.136,0.614l0.217-0.117c0.323-0.211,0.635-0.502,0.962-0.737
		c0.503-0.362,2.272-1.66,2.497-2.106c0.5-0.694,0.692-1.497,0.564-2.479c-0.189-1.538-1.3-3.084-2.6-3.935
		c-1.115-0.734-2.39-0.505-3.534,0.023l0.063-0.01c-0.417,0.184-3.138,1.787-3.317,2.039C29.836,16.3,30.316,16.47,30.446,16.509z
		 M33.466,14.818c0.827-0.373,1.486,0.288,1.969,0.902c0.628,0.798,1.132,1.693,1.662,2.55c0.48,0.762,1.034,1.727,0.171,2.421
		c-0.455,0.136-0.627-0.284-0.873-0.62c-0.385-0.585-0.781-1.156-1.167-1.743c-0.627-0.921-1.251-1.829-1.87-2.754l-0.058,0.038
		l0.058-0.038C32.971,15.177,33.112,15.067,33.466,14.818z"/>
	<path d="M47.621,7.026c0.365,0.276,0.76,0.569,0.896,1.039c0.517,1.876,1.049,3.751,1.582,5.628
		c0.107,0.309,0.074,0.612,0.003,0.918c-0.042,0.247-0.255,0.449-0.103,0.676c0.198,0.272,1.356-0.253,1.575-0.339
		c0.855-0.311,1.753-0.538,2.538-1c2.46-1.455,2.054-4.507,0.96-6.689c-0.47-0.92-1.149-1.693-2.188-1.923
		c-1.24-0.27-2.642,0.202-3.805,0.556c-0.519,0.151-1.09,0.333-1.521,0.693C47.376,6.739,47.449,6.899,47.621,7.026z M50.844,6.47
		c1.854-0.697,2.412,2.885,2.674,3.995c0.228,0.961,0.596,2.222-0.315,2.9c-0.652,0.218-0.687-0.382-0.827-0.863
		c-0.182-0.68-0.389-1.358-0.599-2.036c-0.354-1.112-0.698-2.226-1.048-3.337C50.648,6.857,50.64,6.65,50.844,6.47z"/>
	<path d="M62.293,3.943c0.17,0.238,0.228,0.521,0.282,0.805C62.749,5.51,62.891,6.286,63,7.073c0.146,1.109,0.195,2.249,0.244,3.383
		c0.011,0.292,0.014,0.576,0.031,0.869c-0.003,0.185-0.158,0.388-0.255,0.545c-0.186,0.339,0.362,0.413,0.561,0.393
		c1.222-0.144,2.542-0.153,3.694-0.57c0.325-0.104,0.615-0.245,0.883-0.437c0.199-0.117,0.377-0.262,0.554-0.428
		c0.919-0.891,1.223-2.232,1.226-3.459c0.012-1.142-0.195-2.469-0.797-3.478c-0.482-0.808-1.344-1.154-2.262-1.273
		c-1.328-0.164-2.814,0.002-4.132,0.194c-0.214,0.031-1.102,0.22-0.883,0.617C61.969,3.618,62.17,3.77,62.293,3.943z M65.216,3.517
		c2.077-0.621,1.91,3.538,1.913,4.604c0.028,0.957,0.176,2.076-0.61,2.756c-0.578,0.187-0.662-0.455-0.701-0.91
		c-0.084-0.738-0.165-1.477-0.247-2.227c-0.123-1.286-0.268-2.569-0.403-3.86L65.216,3.517z M65.127,3.537l0.012-0.011l-0.049,0.07
		L65.127,3.537z"/>
	<path d="M40.762,11.726c0.186,1.043,0.291,2.091,0.389,3.148c0.058,0.812,0.104,1.621,0.147,2.43
		c0.014,0.493,0.028,0.946-0.154,1.422c-0.107,0.241-0.386,0.532-0.319,0.814c0.045,0.185,0.496-0.002,0.496-0.002l0.167-0.12
		c0.494-0.405,1.827-0.941,1.926-0.974c0.2-0.095,0.398-0.227,0.372-0.434c-0.032-0.282-0.696-0.555-0.853-0.804
		c-0.197-0.296-0.305-0.999-0.063-1.262c0.406-0.19,1.761-0.788,2.064-0.829c0.235-0.034,0.827,0.801,0.824,0.912
		c-0.004,0.17,0.091,0.322,0.06,0.52c-0.028,0.267,0.028,0.501,0.34,0.445c0.249-0.043,2.893-1.313,2.919-1.323
		c0.527-0.32-0.637-0.602-0.808-0.741c-0.414-0.354-3.549-3.816-4.589-5.2C43.45,9.416,43.41,8.962,43.38,8.579
		c-0.006-0.208-1.72,0.346-1.924,0.414c-0.14,0.045-1.181,0.575-1.307,0.744l0.281,0.605C40.659,10.729,40.682,11.294,40.762,11.726
		z M42.693,16.023l0.053-0.037L42.693,16.023z M43.791,13.777c0.207,0.237,0.387,0.438,0.123,0.642
		c-0.063,0.033-0.87,0.374-1.055,0.433c-0.188,0.042-0.36,0.051-0.49,0l-0.13-0.718c-0.06-0.71-0.202-2.231-0.2-2.295
		C42.498,11.993,43.573,13.53,43.791,13.777z M42.108,18.967c-0.263,0.157-0.495,0.345-0.732,0.523
		C41.526,19.361,41.778,19.159,42.108,18.967z"/>
	<path d="M124.036,42.004c-0.576,0.052-1.041-0.19-1.545-0.08l-0.303,0.08c-0.248,0.153,0.168,0.568,0.238,0.667
		c0.168,0.238,0.424,0.929,0.473,1.043c0.119,0.31,0.441,0.266,0.699,0.089l0.578-0.541c0.381-0.175,0.795-0.29,1.18-0.369
		c0.375-0.063,0.521,0.048,0.662,0.347c0.193,0.431,0.406,0.856,0.592,1.288c0.123,0.271,0.264,0.494,0.211,0.788
		c-0.045,0.222-1.318,1.04-1.605,1.12l-0.459,0.056l-0.014-0.001c0,0-0.262,0.1-0.221,0.36c0.045,0.281,0.248,0.52,0.387,0.755
		c0.238,0.41,0.307,0.965,0.461,1.409c0.342,0.902,0.762,0.544,0.748,0.544c0.115-0.121,0.129-0.28,0.238-0.462
		c0.283-0.547,0.852-0.988,1.307-1.407c1.314-1.26,4.18-3.86,4.268-3.92c0.035-0.011,1.121-0.124,1.203-0.341l0.023-0.012
		l0.023-0.012h-0.023c0.49-0.373-1.117-2.37-1.121-2.823c-0.004-0.332-0.375-0.291-0.352-0.302c-0.051,0.025-0.35,0.053-0.865,0.79
		l-0.6,0.15C128.583,41.576,124.431,41.965,124.036,42.004z M124.091,43.309v-0.012h0.016L124.091,43.309z M131.956,43.747
		l0.027-0.012l0.025-0.021l0.049-0.012l-0.102,0.058V43.747z M131.917,43.771l0.014,0l-0.049,0.022L131.917,43.771z M128.177,44.231
		l0.012-0.012l0.076-0.044L128.177,44.231z M128.294,44.175l-0.018,0l-0.016,0.008l0.043-0.034L128.294,44.175z M127.392,42.546
		c0.277-0.081,2.055-0.068,2.066-0.08c-0.012,0.012,0.408,0.12,0.143,0.408l-1.412,1.344l-0.348-0.008
		c-0.217-0.25-0.283-0.691-0.398-1.001C127.372,42.975,127.179,42.736,127.392,42.546z"/>
	<path d="M8.65,43.397l0.303-0.152c0.175-0.12,0.277-0.154,0.571-0.125c0.718,0.067,1.409,0.56,2.012,0.904
		c1.093,0.612,2.201,1.224,3.304,1.849h-0.01c0.255,0.18,1.063,0.686,1.173,0.822c0.158,0.215,0.076,0.527,0.386,0.598l0.3-0.153
		l0.012,0.001l-0.012-0.001l2.867-5.149c0,0-2.048-2.99-2.621-1.975c-0.181,0.317,0.313,0.931,0.42,1.227
		c0.165,0.443,0.181,0.921,0.144,1.388c-0.009,0.429-0.067,1.349-0.388,1.76c-0.295-0.007-2.876-1.463-3.001-1.526
		c-0.047-0.023,0.224-0.926,0.845-1.062c0.277-0.066,0.823-0.09,0.938-0.25c0.346-0.459-1.947-1.39-2.541-1.539
		c-0.505-0.122-0.168,1.04-0.099,1.224c0.056,0.137,0.184,0.667-0.142,1.151c-0.65-0.322-2.385-1.194-2.605-1.292
		c-0.197-0.104,0.597-1.718,1.012-1.808c0.458-0.101,1.295-0.271,1.559-0.446c0.381-0.238-0.063-0.518-0.308-0.561
		c-0.431-0.068-0.869-0.104-1.29-0.21c-0.258-0.067-0.497,0.078-0.497,0.087c-0.456,0.325-1.688,3.081-2.027,3.808
		C8.849,42.189,8.026,43.448,8.65,43.397z M13.316,42.271l-0.102,0.097L13.316,42.271z M9.14,43.102l-0.215,0.13L9.14,43.102z"/>
	<path d="M102.351,13.18c-0.674,1.138-2.818,4.649-3.299,5.034c-0.914,0.115-0.836,0.338-0.865,0.373
		c-0.367,0.36,0.754,0.641,0.967,0.742c0.961,0.478,3.609,2.078,4.004,2.346c0.221,0.128,0.441,0.339,0.686,0.419
		c0.027,0,0.525-0.037,2.072-1.819c0.178-0.205,0.609-0.725,0.023-0.653c-0.424,0.043-0.83,0.376-1.229,0.479
		c-0.824,0.191-1.816-0.002-2.531-0.372c-0.666-0.348-0.484-0.661-0.197-1.122c0.463-0.8,0.939-1.599,1.424-2.397
		c0.266,0.079,0.465,0.244,0.684,0.469c0.4,0.422,0.504,0.771,0.566,1.326c0.029,0.358,0.295,0.557,0.568,0.28
		c0.369-0.373,0.52-1.057,0.729-1.517c0.131-0.268,0.586-1.18,0.277-1.248c-0.238-0.053-0.676,0.16-0.891,0.228l-0.531-0.095
		c-0.408-0.1-0.645-0.089-0.887-0.441c0.463-0.7,0.902-1.438,1.418-2.116c0.494-0.035,1.076,0.725,1.293,1.07
		c0.287,0.425,0.479,0.908,0.615,1.387c0.139,0.449,0.592,0.359,0.602,0.359c0.145-0.048,0.279-0.167,0.348-0.373
		c0.129-0.378,0.504-1.412,0.508-1.574c-0.023-0.206-0.639-0.466-0.809-0.569c-1.256-0.811-2.479-1.634-3.758-2.409
		c-0.172-0.114-1.303-0.691-1.27,0.023c-0.006,0.243,0.092,0.466,0.061,0.708C102.88,12.221,102.606,12.743,102.351,13.18z
		 M98.989,18.272l-0.164,0.058l0.189-0.083L98.989,18.272z M99.052,18.24"/>
	<path d="M129.548,67.088c0.018,0.481-0.057,1.02-0.041,1.498c0.002,0.232,0.035,0.186,0.102,0.419l0.221,0.089
		c0.027,0,1.91,0.265,2.283,0.335c0.543,0.109,0.701-0.271,0.357-0.422c-1.307-0.568-2.08-2.083-2.172-2.881
		c-0.098-0.727,0.26-0.755,0.809-0.795c0.951-0.077,1.883-0.141,2.818-0.221c0.096,0.271,0.074,0.518,0.004,0.822
		c-0.133,0.562-0.336,0.729-0.768,1.077c-0.281,0.237-0.211,0.572,0.178,0.481c0.551-0.108,1.637-0.468,2.139-0.491
		c0.508-0.04,0.232-0.328,0.232-0.339c-0.943-0.793-0.746-1.194-0.797-1.332c-0.154-0.38-0.018-0.34,0.381-0.357
		c0.85-0.021,1.684-0.161,2.541-0.141c0.32,0.382,0.061,1.851-0.094,2.226c-0.186,0.474-0.68,0.7-0.945,1.123
		c0,0-0.463,0.578,0.361,0.5l1.604-0.483c0.162-0.131,0.012-0.438,0.014-0.625c-0.031-1.472-0.139-2.886-0.23-4.357
		c-0.035-0.726-0.111-1.05-0.137-1.057c-0.109-0.117-0.26-0.155-0.488-0.01c-0.199,0.128-0.342,0.333-0.553,0.451
		c-0.455,0.248-2.543,0.054-2.959,0.33c-0.543,0.355-3.73,0.558-4.326,0.386c-0.184-0.127-0.168-0.25-0.498-0.381l-0.014-0.012
		c-0.52-0.095-0.404,0.864-0.371,1.098C129.349,65.049,129.499,66.048,129.548,67.088z M130.056,63.323 M130.032,63.298
		l-0.045-0.014l-0.123-0.101L130.032,63.298z M129.583,62.93l0.01,0.014l-0.023-0.014H129.583z"/>
	<path d="M5.354,52.97c0.15-0.169,0.103-0.143,0.179-0.215c0.228-0.059,0.491-0.042,0.709-0.037c0.435-0.002,7.319-0.235,7.522,0.09
		c0.484,0.723,0.768,0.202,0.782,0.176c0.296-0.474,0.435-1.146,0.624-1.67c0.048-0.155,0.455-0.968,0.271-1.071
		c-0.164-0.079-0.487,0.014-0.648,0.023c-0.398,0.014-0.658-0.065-0.975-0.292c-1.726-1.227-3.59-2.444-5.08-3.95
		c-0.144-0.15-0.301-0.312-0.397-0.511c-0.131-0.247-0.264-0.938-0.531-0.795c-0.592,0.318-1.079,2.195-1.076,2.528
		c-0.007,0.27,0.508-0.003,0.508-0.013c0.739-0.23,2.073,0.987,2.586,1.355c0.27,0.202,2.234,1.409,1.85,1.893
		c-0.252,0.092-3.879-0.047-4.275-0.069c-0.504-0.024-0.808-0.201-1.212-0.444c-0.247-0.149-0.399,0.081-0.438,0.102v0.012H5.743
		c-0.116,0.084-0.701,2.317-0.82,2.682C4.881,52.898,5.1,53.172,5.354,52.97z M7.323,47.161l-0.081,0.048L7.323,47.161z
		 M5.459,52.776l0.012-0.011l-0.065,0.072L5.459,52.776z"/>
	<path d="M81.003,18.808c0.014,0,0.277-0.216,0.082-0.332c-1.035-0.574-1.781-1.508-2.611-2.325
		c-0.414-0.414-0.826-0.827-1.254-1.229l-0.6-0.478c-0.004,0.087,0.811,1.171,1.182,1.618
		C78.729,17.128,79.802,18.059,81.003,18.808z"/>
	<path d="M75.94,21.461c0.27,0.312,0.896,0.628,1.34,0.395l0.424-0.322c-0.574,0.208-1.01-0.196-1.377-0.582
		c-0.377-0.388-0.73-0.753-1.199-1.045c-0.291-0.189-1.203-0.6-1.51-0.167v0.01c0.291,0.291,0.576,0.912,0.602,1.303
		c0.031,0.501,0.016,1.129,0.598,1.24c0.359,0.067,1.088-0.246,1.123-0.27l0.018-0.012c-0.719,0.291-1.248-0.101-1.154-0.833
		c0.064-0.701-0.426-1.041-0.473-1.09C74.896,20.467,74.995,20.323,75.94,21.461z M77.481,21.663L77.481,21.663l-0.027,0.011
		L77.481,21.663z"/>
	<path d="M88.95,55.521L88.95,55.521c0.73,0.729,1.525,1.396,2.461,1.872c1.166,0.587,2.561,0.63,3.717,0.054
		c1.875-0.944,2.295-3.021,2.541-4.081l-0.365,0.2c-0.27,0.904-1.264,3.211-4.082,3.336C90.563,57.017,88.972,55.499,88.95,55.521z
		 M95.11,56.513L95.11,56.513l-0.012,0L95.11,56.513z"/>
	<path d="M85.812,53.518c0.039,1.08,0.928,1.92,1.748,2.537l0.016,0.013l0.219-0.113c-0.01,0-1.563-1.265-1.576-2.687L85.812,53.518
		z"/>
	<path d="M97.419,65.912c-0.721-0.812-3.244-1.299-3.342-1.323c0.984,0.339,2.369,0.785,2.982,1.646
		c0,0.012,0.027,1.671,0.076,2.788c0.074,1.203-0.33,2.565-1.342,3.331l0.416-0.238c1.482-1.129,1.482-3.45,1.322-5.109
		c-0.102-1.06,0.637-1.863,1.531-2.446C98.495,64.902,97.825,65.345,97.419,65.912z"/>
	<path d="M86.995,64.128c0.967-0.356,2.043-0.555,3.07-0.459l0.428-0.25c-1.041-0.084-2.117,0.102-3.074,0.461L86.995,64.128z"/>
	<path fill="#323434" d="M103.688,84.216l-0.6,0.321c-0.08,0.063,0.018,0.11,0.018,0.541c-0.029,0.679-0.68,1.14-0.693,1.153
		C103.751,86.218,103.784,84.738,103.688,84.216"/>
	<path fill="#323434" d="M105.175,79.197l-0.42,0.23c0.098,0.986,0.018,1.969-0.453,2.848c-0.129,0.261-0.322,0.508-0.533,0.726
		l-0.227,0.2c-0.021,0.02-0.127,0.087-0.123,0.087s0.01-0.004,0.025-0.011c-0.025,0.014-0.035,0.021-0.035,0.021
		c0.006,0,0.248-0.137,0.295-0.16C105.062,82.338,105.319,80.597,105.175,79.197"/>
	<path d="M101.091,73.499l-0.426,0.247c2.311,0.331,4.109,2.136,4.492,4.354C105.147,78.05,104.7,73.477,101.091,73.499z"/>
	<path d="M103.345,80.784l0.162-0.574c-0.781-3.857-6.43-3.989-6.553-4.004C99.897,76.918,102.042,77.948,103.345,80.784z"/>
	<path d="M98.813,73.471c-1.551-0.029-2.742-0.116-4.666,0.355c-0.215,0.058-0.453,0.099-0.666,0.183
		c-0.215,0.084-0.807-0.08-1.059-0.012c-0.498,0.126-0.738,0.523-0.844,0.585c0.236-0.132,1.057-0.555,1.834-0.292
		c0.221,0.08,1.469-0.622,4.975-0.582L98.813,73.471z"/>
	<path d="M70.473,82.188c-1.99-2.229-4.008-4.466-5.996-6.691l-0.141,0.084l-0.08,0.05c1.794,2.354,3.785,4.629,5.762,6.845
		l0.052-0.026h0.015l-0.015,0.013l0.024-0.023l0.15-0.083l0.028-0.027v0.014l0.149-0.12L70.473,82.188l-0.051,0.033v-0.01
		L70.473,82.188z"/>
	<path d="M78.329,79.129c-1.73,0.037-3.262,0.014-5.006,0.063c-0.422,0.004-1.617,0.174-1.688,0.014
		c-0.195-0.421-0.442-0.82-0.696-1.215c-1.086-1.666-2.332-3.253-3.607-4.787c-0.797-0.977-2.292-2.039-3.599-1.378
		c-0.401,0.197-0.548,0.599-0.829,0.949c0.09-0.12,1.086-0.674,1.446-0.768c1.002-0.221,2.099,0.882,2.691,1.594
		c1.248,1.533,2.483,3.095,3.539,4.733c0.242,0.363,0.457,0.734,0.637,1.121c0.08,0.185,0.044,0.222,0.233,0.225
		c0.422-0.017,1.254,0.211,1.688,0.194c1.74-0.047,3.258-0.027,5.004-0.067c2.799-0.07,5.941,0.047,8.49-0.392l0.182-0.363
		C83.976,79.129,81.179,79.056,78.329,79.129z"/>
	<path d="M86.011,80.583c-1.422,0.017-2.85,0.04-4.279,0.054l-0.43,0.25c1.43-0.03,2.861-0.036,4.281-0.07L86.011,80.583z"/>
	<path d="M78.476,81.426c-1.613,0.026-3.219,0.043-4.828,0.07l-0.428,0.247c1.619-0.027,3.223-0.044,4.828-0.07L78.476,81.426z"/>
	<path d="M71.286,82.548c1.073-0.017,2.118-0.029,3.172-0.043l0.432-0.248c-1.063,0.014-2.117,0.027-3.172,0.044L71.286,82.548z"/>
	<path d="M72.099,82.994l-0.428,0.25c5.492,0.144,11,0.298,16.512,0.451l0.43-0.247C83.103,83.291,77.591,83.137,72.099,82.994z"/>
	<path d="M84.356,82.89c1.154-0.011,2.311-0.023,3.467-0.034l0.428-0.25c-1.156,0.01-2.314,0.023-3.48,0.047L84.356,82.89z"/>
	<path d="M67.323,100.41l0.416-0.234c-2.158,0.799-4.709,0.23-6.756-0.695c-2.513-1.149-4.836-2.854-6.813-4.76
		c-2.033-1.971-5.078-7.129-5.078-7.129c0.946,2.645,2.558,5.308,4.542,7.264c1.987,1.968,4.359,3.663,6.896,4.855
		C62.577,100.664,65.164,101.225,67.323,100.41z"/>
	<path d="M81.794,109.269l-0.729,0.304c0.17,0.117,0.375-0.016,0.576,0.46c0.203,0.469,0.08,1.435-0.049,1.542
		C81.62,111.563,82.478,109.754,81.794,109.269z"/>
	<path d="M77.343,122.892c0,0,3.139-0.855,1.203-2.881l-0.676,0.831c-0.24,0.201,0.127,0.346,0.309,0.191
		c0.025-0.018,0.396,0.471,0.176,0.936C78.118,122.431,77.343,122.892,77.343,122.892z"/>
	<path d="M69.864,106.378c-0.293-0.273-0.698-0.063-1.08-0.121c-6.606-0.498-11.446-3.977-11.48-3.963
		c2.306,2.517,5.544,4.138,8.901,4.829C69.262,107.739,70.108,106.616,69.864,106.378z"/>
	<path d="M59.63,100.48c1.048,0.658,3.343,1.286,4.386,1.54c-2.08-0.618-6.701-3.223-6.724-3.248
		C58.023,99.393,58.82,99.948,59.63,100.48z"/>
	<path d="M76.546,106.926c-0.496,2.296-3.158,3.454-3.195,3.464C75.974,110.398,76.653,108.253,76.546,106.926z"/>
	<path d="M61.687,111.04c0.014,0.013,0.351-1.971-1.975-4.585c-3.646-4.101-7.326-10.795-7.312-10.768
		c0.692,1.891,2.362,5.057,3.939,7.336c0.879,1.271,1.953,2.373,2.895,3.593c0.799,1.06,1.866,2.339,1.957,3.737
		c-0.457-0.539-3.464-4.271-4.269-5.552c-0.986-1.581-1.904-3.191-2.729-4.87c0.014,0.014,1.304,3.439,2.229,4.997
		C59.182,109.5,61.531,110.949,61.687,111.04z"/>
	<path d="M51.918,104.364c0.248,1.403,0.363,2.803,0.554,4.196l0.152-0.086l0.051-0.033c0.125-0.125,0.019-0.772,0.021-0.933
		c-0.02-0.465-0.03-0.933-0.062-1.403c-0.063-0.92-0.182-1.843-0.347-2.764c-0.308-1.712-0.767-3.49-1.629-5.027l-0.049,0.02
		c-0.189,0.124-0.405,0.224-0.579,0.345l0.072-0.047l-0.072,0.047c0.582,0.691,0.87,1.563,1.14,2.403
		C51.497,102.157,51.72,103.267,51.918,104.364z"/>
	<path d="M60.37,111.477c-1.423-0.608-2.937-1.007-4.5-1.043c-1.146-0.023-2.262,0.432-2.239,0.418
		c-0.023,0.014,3.848-0.211,6.157,0.992L60.37,111.477z"/>
	<path d="M66.639,110.494l0.431-0.25c-0.953,0.361-4.857-2.117-4.857-2.117C62.752,108.607,65.647,110.866,66.639,110.494z"/>
	<path d="M61.936,83.441c0.2,0.087,0.799,0.458,0.799,0.458l0.302-0.094c0.011-0.01-1.402-1.501-2.53-1.478
		c-0.384,0.021-1.947,0.77-1.973,0.783C59.672,82.876,60.878,82.91,61.936,83.441z M58.758,82.98"/>
	<path d="M93.073,80.563c0.303-0.227-2.947-3.683-5.107-4.562l-0.168,0.08c3.627,2.176,5.076,4.572,5.049,4.585L93.073,80.563z"/>
	<path d="M96.94,85.209c0.441-1.327-0.172-2.865-1.133-3.928c-0.01-0.023,1.332,2.3,0.719,4.178L96.94,85.209z"/>
	<path d="M96.509,79.962c-0.176-0.288-0.744-0.689-1.115-0.723l-0.203,0.113c0.025,0.063,1.191,1.351,1.328,1.799
		C96.567,81.309,96.884,80.583,96.509,79.962z"/>
	<path d="M52.193,22.921c-3.603,1.293-6.428,2.556-8.591,3.604c-4.15,1.986-9.625,6.237-11.966,7.978
		c3.262-2.31,15.05-10.273,27.291-12.998l0.226-0.077c2.422-0.663,2.681-1.233,2.503-1.51c-0.032,0.031-4.328,1.372-4.813,1.51
		C55.276,21.874,53.727,22.382,52.193,22.921"/>
	<polyline fill="#323434" points="58.103,22.29 58.006,22.367 58.103,22.29 	"/>
	<path d="M32.884,32.081l0.014-0.012v0.012H32.884c10.902-7.887,23.84-13.021,27.82-14.004c-5.419,1.335-10.715,3.512-15.673,6.044
		C42.739,25.299,33.133,31.018,32.884,32.081z M56.457,19.347c-1.105,0.383-2.195,0.776-3.274,1.182
		c-1.191,0.454-2.348,0.92-3.501,1.422C51.891,20.98,54.152,20.096,56.457,19.347z"/>
	<polygon points="39.234,27.346 39.411,27.251 39.488,27.203 	"/>
	<polyline fill="#323434" points="56.004,30.575 55.907,30.652 56.004,30.575 	"/>
	<path d="M73.118,58.261c-3.946-0.634-11.169-0.286-11.231-0.226C65.43,58.098,72.993,58.248,73.118,58.261z"/>
	<path d="M73.979,56.316l0.125-0.008L73.979,56.316z"/>
	<path fill="#323434" d="M42.987,56.587c-0.967,0-1.969,0.093-2.922,0.292l-0.42,0.246l-0.016,0.016l-0.097,0.047l-0.048,0.031
		l-0.065,0.03c0.008-0.001,0.015-0.002,0.022-0.004l-0.006,0.004l0.009-0.004c0.394-0.075,0.758-0.134,1.138-0.165l5.701,0.031
		c0.307,0.015,0.629,0.045,0.952,0.077c0.326,0.022,0.796,0.14,1.182,0.14c0.13,0,0.25-0.013,0.352-0.048l0.339-0.216l0.098-0.061
		l0.096-0.062l-0.064,0.031l0.064-0.031C47.22,56.726,45.103,56.587,42.987,56.587"/>
	<path fill="#323434" d="M116.382,87.495l-0.42,0.265c-0.1,1.43-1.195,2.771-2.246,3.693l0.42-0.244
		C115.187,90.299,116.284,88.942,116.382,87.495"/>
	<polygon points="64.732,124.095 64.975,123.952 64.997,123.928 	"/>
	<path fill="#323434" d="M124.858,78.241c-0.291,0.308,0.613,0.939,1.213,1.046c0.031,0-1.002-0.691-0.891-1.016L124.858,78.241"/>
	<polyline fill="#323434" points="108.71,29.559 108.681,29.559 108.71,29.559 	"/>
	<path d="M87.431,18.855c0.063-0.308-0.533-0.277-0.648-0.401c-0.145-0.184,0.693-0.153,0.502-0.307
		c-0.355-0.339-0.887-0.293-1.277-0.247c-0.225,0.016-0.402,0.046-0.5,0c-2.713-1.063-3.084-1.386-4.037-2.217
		c-0.049-0.309-0.031-0.601-0.162-0.924c-0.482-1.125-2.229-1.524-2.229-1.524c0.438,0.4,0.873,0.785,1.244,1.231
		c0.371,0.462,0.451,0.971,0.6,1.525c0.256,0.816,1.598,2.064,1.566,2.018c-0.26-0.431-0.471-0.862-0.68-1.309
		c-0.08-0.185-0.162-0.385-0.229-0.585c1.406,1.263,2.973,2.849,4.766,3.188c0.014,0.015,0.031-0.093,0.064-0.201
		c0.049-0.153,0.129-0.307,0.34-0.153l2.166,1.155C88.979,19.486,87.284,19.41,87.431,18.855"/>
	<path d="M90.56,22.054l0.252-0.24c0.299-0.508,0.428-1.097,0.441-1.684c0.045-1.202-0.486-2.388-1.086-3.423
		c-0.574-0.993-3.107-4.049-3.23-4.042l-0.014,0.01c-0.057,0.307,0.795,1.024,0.977,1.227c0.705,0.955,1.279,1.988,1.729,3.075
		c0.398,0.98,0.697,2.066,0.721,3.146c-0.641-1.155-1.59-2.157-2.441-3.108c-0.074-0.097-0.396-0.071-0.225,0.157
		c1.139,1.468,1.951,2.629,2.545,4.177v0.01l-0.082,0.379L90.56,22.054z M90.22,21.692v0.011l-0.023,0.013L90.22,21.692z"/>
	<path d="M86.257,22.01c0.174-0.094,0.102-0.71,0.014-0.697l-0.021-0.049c-1.174-0.368-2.32-0.826-3.291-1.593
		c-0.244-0.189-0.447-0.415-0.654-0.628l-0.256-0.311l-0.313,0.028l-0.014,0.025v0.013c0.908,1.199,1.994,2.313,3.396,2.945
		C85.362,21.856,85.979,22.177,86.257,22.01z M86.196,21.263h-0.023h-0.012H86.196z"/>
	<path d="M83.376,21.813l0.994-0.041c-0.959-0.471-2.641-1.465-3.209-2.215C81.136,19.535,81.312,20.482,83.376,21.813z"/>
	<path d="M86.946,21.057l0.014,0.012c0.211,0.042,0.436,0.06,0.66,0.078c0.244,0.028,0.459,0.178,0.689,0.209
		c0.197,0.029,0.207-0.398,0.207-0.412c-0.066-0.063-0.807-0.62-1.43-0.499c0,0-1.91-0.344-2.564-1.048l-0.1-0.002
		c-0.076,0.184,0.092,0.41,0.201,0.52C85.208,20.541,86.157,20.82,86.946,21.057z M86.942,20.419"/>
	<path fill="#323434" d="M81.647,13.311l-0.42,0.247c0.371,0.212,0.807,0.325,1.236,0.325c0.135,0,0.268-0.01,0.396-0.033
		l0.416-0.247c-0.125,0.022-0.258,0.033-0.391,0.033C82.454,13.636,82.019,13.523,81.647,13.311"/>
	<path d="M82.548,14.142l-0.43,0.249c0.869,0.202,1.885,0.261,2.572-0.387C84.573,14.11,83.151,14.29,82.548,14.142z"/>
	<path d="M84.806,15.418c-0.035,0.007-0.357,0.581-0.68,0.464l-0.236,0.459c0.596,0.172,0.955-0.202,1.365-0.928L84.806,15.418z"/>
	<path d="M84.03,16.847l0.193,0.128c0.6,0.026,1.205-0.33,1.668,0.035c0.035,0.038,0.303,0.031,0.193-0.318
		c-0.785-0.943-0.834-0.372-1.641-0.094L84.03,16.847z"/>
	<path d="M90.075,28.217c0.498,0.037,0.912,0.507,1.326,0.861l0.143-0.331c-0.154-0.371-0.332-1.16-0.834-1.207
		C90.315,27.496,90.075,28.217,90.075,28.217z"/>
	<path d="M91.155,23.33c-0.008,0.746-0.098,1.506-0.533,2.149L89.8,26.087c1.359-0.289,1.939-1.786,1.941-2.966
		C91.739,23.208,91.165,22.816,91.155,23.33z"/>
	<path d="M92.202,22.09c0.34-0.766,0.773-1.858,0.855-2.692l-0.432,0.25C91.366,22.745,92.202,22.09,92.202,22.09z"/>
	<path d="M69.514,116.653l0.857-0.5c-0.673-0.047-2.162,0.461-2.797,1.104C67.785,117.045,69.092,116.618,69.514,116.653z"/>
	<path d="M72.409,115.785c0.398,0.008,0.809-0.084,1.172-0.236c0.303-0.139,1.668-1.044,1.809-1.308l-0.807,0.388
		c-0.203,0.364-1.121,0.662-1.33,0.658L72.409,115.785z"/>
	<path d="M74.526,116.025c0.297,0.041,0.625,0,0.924-0.093c0.238-0.067,1.172-0.612,1.35-0.829c-0.084,0.107-1.053,0.48-1.428,0.434
		L74.526,116.025z"/>
	<path d="M25.094,46.829c6.722-4.714,13.933-8.827,21.696-11.629c1.689-0.602,3.371-1.278,5.008-2.039
		c1.002-0.472,4.409-2.409,4.968-3.011c-0.191,0.204-6.068,3.269-10.82,4.984c-5.442,1.956-10.45,5.037-15.357,8.037
		c-2.432,1.482-4.859,3.01-7.184,4.657C23.938,47.454,24.565,47.212,25.094,46.829z"/>
	<path d="M55.309,29.676c-8,2.762-15.665,6.672-22.863,11.043c-2.762,1.671-5.439,3.49-7.982,5.484
		c0.504-0.395,1.195-0.591,1.699-0.981c5.078-3.989,10.673-7.209,16.506-9.977c3.396-1.608,6.85-3.091,10.374-4.376
		c0.203-0.059,0.392-0.14,0.578-0.195C54.219,30.466,54.707,29.886,55.309,29.676z"/>
	<path d="M50.389,40.577c-0.102,0.119-1.638,0.92-2.13,1.217c-0.351,0.201-2.524,1.198-3.953,1.67
		c-2.184,0.741-4.183,1.725-6.231,2.775c-3.399,1.729-6.702,3.682-9.93,5.673c-1.577,0.972-3.129,1.968-4.659,3.015
		c-0.136,0.084,1.02-0.528,1.725-0.93c0.694-0.414,1.438-0.791,2.096-1.254c0.988-0.704,6.784-4.172,7.488-4.517
		c1.925-0.948,3.894-1.741,5.927-2.434C44.507,44.486,50.133,40.853,50.389,40.577z"/>
	<path d="M46.469,40.59c-2.746,0.948-5.417,2.128-8.046,3.371c-2.931,1.389-5.766,2.97-8.559,4.604
		c-3.077,1.786-6.08,3.634-8.876,5.821c0.165-0.131,3.615-1.984,4.237-2.471c1.07-0.85,2.183-1.648,3.333-2.42
		c0.543-0.373,5.116-2.849,7.24-3.808c2.108-0.952,4.248-1.872,6.454-2.623C42.974,42.81,46.28,40.66,46.469,40.59z"/>
	<path d="M22.273,104.34l-0.011-0.074c-0.199-1.046-1.593-2.941-1.638-3.038l-0.804-1.243l-0.61,0.438
		c-0.403,0.236-0.964,0.287-1.402,0.387c-1.049,0.221-4.836,0.545-5.661,0.604c-0.497,0.047-0.946,0.088-1.442-0.08
		c-0.26-0.093-0.414-0.427-0.687-0.334c-0.189,0.058-0.154,0.204-0.093,0.324c-0.016-0.01,0.836,0.916,1.036,1.966
		c0.025,0.061,1.342-0.946,2.46-0.368c0.204,0.388,1.353,2.41,1.288,3.011c-0.233,0.521-1.333,1.331-1.333,1.345l0.032,0.211
		l0.014-0.027l0.91,1.641c0.033,0.077,0.398,0.598,0.525-0.101c0.099-0.524,0.695-1.741,1.078-2.122
		c0.371-0.348,0.739-0.694,1.089-1.042l0.417,0.41c0.328,0.429,0.68,0.712,0.34,1.541c-0.369,0.889-1.496,2.338-1.722,2.983
		c-0.132,0.363,0.701,1.5,0.701,1.5c0.245,0.214,0.299-0.007,0.433-0.287c0.627-1.46,1.881-3.03,1.787-3.889l0.084-0.943
		c0.518,0.111,1.654,0.023,1.994-0.116C22.11,106.572,22.462,105.436,22.273,104.34z M14.63,102.642l0.74-0.157
		c0.715-0.09,2.124-0.258,2.11-0.074c-0.164,0.462-0.852,1.341-0.932,1.414c-0.354,0.225-0.575,0.643-0.939,0.863L14.63,102.642z
		 M19.494,105.609c-0.652,0.301-1.587-0.049-1.952-0.584c0.573-0.538,2.285-3.128,2.499-2.831c0.207,0.277,0.741,0.839,0.769,1.377
		C20.756,104.295,20.062,105.335,19.494,105.609z"/>
	<path d="M24.354,110.912l0.808,0.72c0,0,0.63-0.488,0.881-0.977c0.077-0.244,0.709-1.459-0.688-2.247c0,0-1.385-1.481-3.692,0.324
		c0,0-3.984,2.552-3.336,5.329c0,0,0.936,2.643,3.392,2.328c0,0,0.948,0.021,1.351-0.745c0,0,0.12-0.441,0.527,0.197
		c0,0,0.505,0.354-0.017,0.81c0,0-0.604,1.014-1.467,1.094c-0.002,0.014-0.657,0.01-0.163,0.648l1.091,1.196
		c0,0,0.624,0.521,0.776-0.164c0,0,1.693-2.317,4.584-4.573c0,0,0.89-1.133,0.971-0.25c0,0,0.144,1.523,0.722,0.788
		c0,0,0.394-0.638,0.76-0.854c0,0,0.664-0.045-0.049-0.676l-2.989-2.944c0,0-0.308-0.77-0.949-0.034l-0.482,0.492
		c0,0-0.61,0.527,0.248,0.642c0,0,0.783,0.063,1.037,0.869l-2.746,2.65c0,0-0.286,0.537-0.671-0.057l-1.451-1.766
		c0,0-0.557-0.758-0.774,0.181c0,0-0.126,1.076-1.501,1.38c0,0-0.748,0.131-1.176-0.872c0,0-0.249-0.521,0.886-1.665l3.251-3.096
		c0,0,0.598-0.695,1.262-0.268C24.749,109.386,25.334,109.942,24.354,110.912z"/>
	<path d="M25.766,120.842c0,0-0.724,0.619-0.149,1.087l0.718,0.725c0,0,0.488,0.516,0.689-0.176c0,0.014,0.071-0.479,0.635-1.091
		l2.277-2.249c0,0,0.243-0.397,0.282,0.121l-1.124,4.649c0,0-0.291,1.296,0.648,0.955l4.571-3.041c0,0,0.533-0.492,0.344,0.364
		l-1.955,4.532c0,0-0.322,0.484,0.171,0.835l0.635,0.469c0,0,0.659,0.471,0.774-0.145l2.895-7.637c0,0,0.505-1.083-0.477-1.511
		c0,0-0.496-0.193-1.353,0.414l-3.209,2.213c0,0-0.501,0.1-0.461-0.465c0,0,0.667-2.182,0.792-2.666c0,0,0.706-2.191,0.165-2.62
		c0,0-0.601-0.821-1.162-0.176L25.766,120.842z"/>
	<path d="M39.441,120.752c0,0-0.757-0.712-1.027,0.248l-2.234,7.73c0,0-0.487,0.688,0.249,0.999c0,0,0.545,0.197,0.552,0.408
		c0,0,0.741,0.26,1.111-0.225l5.954-5.919c0,0,0.645-0.491-0.144-0.839l-0.74-0.357c0,0-0.746-0.471-1.135,0.414
		c0,0-0.042,0.616-1.055,1.464l-1.791,1.558c0,0-0.401,0.284-0.28-0.24l1.178-3.717C40.08,122.277,40.721,121.297,39.441,120.752z"
		/>
	<path d="M45.814,124.055c0,0-0.709-0.555-1.193,0.381l-3.48,6.768c0,0-0.894,0.816-0.147,1.006l0.697,0.357
		c0,0,0.507,0.392,0.866-0.217l3.399-6.845c0,0,0.68-0.939,0.151-1.294C45.558,123.854,45.814,124.055,45.814,124.055z"/>
	<path d="M58.193,131.989c0,0,0.76-1.333-0.382-1.247c0,0-1.328-0.383-1.507,1.106c0,0,0.042,0.689,0.225,1.174l0.417,4.107
		c0,0-0.038,0.598,0.508,0.668c0,0,0.564,0.231,1.104-0.537l4.17-6.38c0,0,0.662-0.559-0.252-0.8c0,0-0.913-0.475-1.221,0.023
		l-2.865,4.095C58.39,134.199,57.989,134.891,58.193,131.989z"/>
	<path d="M67.143,132.157c0,0-0.203,0.731-0.771,0.178c0,0-0.793-0.84-1.272,0.096c0,0-0.529,0.321,1.503,2.229
		c0,0,1.949,1.909-0.436,4.038c0,0-1.426,1.468-4.729-0.505c0,0-0.827-0.227-0.464-1.002l0.513-0.772c0,0,0.445-0.855,1.069,0.07
		c0,0,0.231,1.28,1.915,1.229c0.002-0.014,1.886-0.316-0.256-3.023c0,0-1.962-3.002,0.579-3.754c0,0,1.387-0.267,2.259,0.331
		C67.053,131.271,67.545,131.431,67.143,132.157z"/>
	<path d="M56.742,128.263c0,0-0.534-0.033-1.803-0.539c0,0-1.291-0.828-1.862-0.137c0,0-0.88,1.3-0.018,1.333
		c0,0,0.688-0.34,0.988-0.223c0,0,0.326-0.204,0.132,0.641l-2.034,5.389c0,0-0.179,0.972-1.222,0.066c0,0-0.415-0.367-0.523-1.735
		c0,0-0.005-1.323-0.428-1.885c-0.01-0.003,0.939-0.211,1.581-1.105c0,0,0.813-1.187,0.38-2.594c0,0-0.342-0.913-1.368-1.267
		l-2.315-1.022c0,0-1.081-0.502-0.854,0.501c0,0,0.042,0.762-0.357,1.487l-2.762,5.598c0,0-0.566,0.771,0.228,1.01l1.068,0.498
		c0,0,0.585,0.481,0.741-0.24c0,0,0.227-1.294,0.668-2.069l0.603-1.378c0,0,1.311,0.232,1.461,2.44c0,0-0.245,2.78,1.731,3.235
		c0,0,2.235,0.825,2.975-1.073l1.943-5.22c0,0-0.047-0.729,0.449-0.618c0,0,0.205-0.117,0.545,0.193c0,0,0.74,0.361,0.732-0.451
		C57.422,129.098,57.611,128.37,56.742,128.263z M48.429,129.974c-0.808,0.02-0.37-0.669-0.37-0.669l1.122-2.318
		c0.138-0.648,0.531-0.281,0.531-0.281l0.661,0.468c0.62,0.688-0.375,2.384-0.375,2.384
		C49.706,130.214,48.429,129.974,48.429,129.974z"/>
	<path d="M75.534,138.333c0,0-0.992,0.214-1.973-2.028c0,0-0.33-0.752-0.957-1.196c0,0,1.387-0.342,1.334-2.354
		c0,0,0.209-1.554-1.805-1.901l-2.545-0.141l-0.773,0.25l0.13,0.201l-0.294,6.493c0,0,0.088,0.572-0.102,0.843
		c0,0-0.606,0.822,0.342,0.842l1.021,0.034c0,0,0.861,0.181,0.77-0.618l-0.046-3.055c0,0,0.898-0.825,1.628,1.263
		c0,0,1.234,3.166,3.549,2.009C75.813,138.974,76.511,138.53,75.534,138.333z M72.163,133.058c0.055,0.97-0.752,1.298-0.752,1.298
		c-0.831,0.461-0.752-0.308-0.752-0.308l-0.024-2.177c-0.046-0.561,0.89-0.334,0.89-0.334
		C72.397,131.535,72.163,133.058,72.163,133.058z"/>
	<path d="M77.397,131.508c0,0-3.277-0.317-2.988,3.453c0.305,3.786,3.867,3.018,3.867,3.018s1.932-0.672,1.834-3.657
		C80.028,131.833,77.397,131.508,77.397,131.508z M77.228,136.946c0,0-1.098,0.334-1.215-2.316
		c-0.119-2.594,1.186-2.232,1.186-2.232s1.369,0.174,1.359,2.025C78.526,137.209,77.228,136.946,77.228,136.946z"/>
	<path d="M87.21,134.475c0,0-0.295-1.282-1.58-1.63c0,0-0.449-0.07-0.166-0.519c0,0,1.318-2.6-1.289-3.572
		c0,0-2.82,0.564-3.287,0.123c0,0-0.193,0.33-0.555,0.371c0,0-0.748,0.131-0.121,1.017c0,0,0.371,0.106,0.791,3.525
		c0,0,0.418,2.697,0.371,3.54c0,0-0.549,1.296,0.439,1.126c0,0,0.324-0.167,1.758-0.305c0,0,2.1-0.519,2.4-0.671
		C85.972,137.481,87.651,137.045,87.21,134.475z M82.464,132.484l-0.182-1.404c-0.35-1.61,0.607-1.456,0.607-1.456
		c1.375-0.465,1.285,1.511,1.285,1.511c0.182,1.768-1.01,1.711-1.01,1.711C82.187,133.216,82.464,132.484,82.464,132.484z
		 M85.464,135.628c-0.084,1.778-1.703,1.722-1.703,1.722c-0.697,0.131-0.658-0.435-0.658-0.435c-0.01-0.771-0.371-2.46-0.371-2.46
		c-0.215-1.05,1.689-0.862,1.689-0.862S85.56,133.694,85.464,135.628z"/>
	<path d="M97.749,132.815c0,0-0.586-0.147-1.5-1.438c0,0-1.041-1.27-1.787-1.35c0,0,1.422-1.341,0.992-2.751
		c0,0-0.113-2.125-2.811-1.527l-1.842,0.508c0,0-0.533-0.073-0.273,0.963c0,0,0.561,5.03,0.287,6.33c0,0-1.133-1.759-1.506-2.192
		c0,0-1.641-2.53-1.516-3.052c0,0,0.303-1.294-0.43-0.759c0,0-1.059,0.579-1.469,0.546c0,0-0.852-0.117,0.305,0.925
		c0,0,0.578,0.234,1.801,2.31l2.598,4.117c0,0,0.504,0.916,1.193,0.469c0,0,0.662-0.091,0.732-0.86l-0.063-3.937
		c0,0,0.068-1.053,1.236-0.217c0,0,0.279,0.188,1.488,1.744c0,0,1.143,1.759,2.65,1.02
		C97.837,133.664,98.608,133.208,97.749,132.815z M93.06,129.763c-0.684,0.505-0.566-0.144-0.566-0.144l-0.127-2.296
		c-0.125-0.962,0.691-0.731,0.691-0.731c0.875-0.094,1.008,1.55,1.008,1.55C94.167,129.278,93.06,129.763,93.06,129.763z"/>
	<path d="M97.468,125.044c0,0-0.287-0.565-0.893-0.033l-0.402,0.738c0,0-0.229,0.769-0.734,0.047l-0.307-0.719
		c0,0-0.338-0.524,0.609-0.702c0,0,2.818-1.326,3.143-1.563c0,0,0.49-0.611,0.947,0.073c0,0,0.818,0.631-0.035,0.953
		c0,0.014-1.402-0.139-0.943,0.544l2.959,5.846c0,0,1.127,0.705,0.543,1.196l-2.479,1.32c0,0-0.861,0.497-1.064-0.144
		c0,0-0.391-0.966,0.504-1.144l0.787-0.2c0,0,0.492-0.017,0.064-0.973l-0.793-1.524c0,0-0.094-0.554-0.693-0.066
		c0,0-1.064,0.977-1.475,0.428c0,0-0.83-0.646,0.102-1.214l0.893-0.584c0,0,0.492-0.084,0.031-0.759
		C98.231,126.565,97.392,125.208,97.468,125.044z"/>
	<path d="M105.065,121.839c0,0,0.064,1.046,0.877,0.316c0,0,0.6-0.688,0.006-1.446c0,0-0.547-1.571-3.203-0.401
		c-2.045,0.862-1.18,3.112-1.18,3.112s0.133,1.61,3.543,1.724c0,0,2.586-0.117,1.596,2.079c0,0-0.594,0.97-2.049,0.354
		c0,0-1.527-0.763-1.465,0.969c0,0,0.127,0.937,2.516,0.899c0,0,3.443-0.365,2.818-3.653c0,0-0.15-2.173-3.967-2.296
		c0,0-2.34-0.01-1.457-1.587C103.101,121.91,104.722,120.559,105.065,121.839z"/>
	<path d="M107.821,118.821c0,0-0.176-0.467-0.607-0.026c0,0-0.486,0.568-0.547,0.814c0,0-0.307,0.727-0.719,0.131l-0.311-0.682
		c0,0-0.291-0.438,0.445-0.937l2.883-2.29c0,0,0.49-0.605,0.996,0.104c0,0,0.697,0.521-0.035,1.022c0,0-0.896,0.2-1.059,0.526
		c0,0-0.361,0.211,0.049,0.569l3.352,4.581c0,0,0.371,0.488,1.035,0.759c0.658,0.268,0.215,0.643,0.004,0.959l-0.641,0.532
		c0,0-0.813,0.695-1.104-0.23c0,0-0.277-1.12-0.74-1.595L107.821,118.821z"/>
	<path d="M111.991,117.564c0,0-0.711-0.435-1.059,0.185c0,0-0.979,0.775,0.381,1.27l4.705,2.129c0,0,0.293,0.432,0.785,0.027
		l0.566-0.451c0,0,0.402-0.218,0.078-1.134l-2.646-6.408c0,0-0.371-0.596-0.387-1.688c0,0-0.051-1.042-0.707-0.236l-0.975,0.898
		c0,0-0.768,0.906,0.064,1.13c0,0,0.486-0.207,0.836,0.88l2.205,4.964c0,0,0.203,0.32-0.256,0.24L111.991,117.564z"/>
	<path d="M122.784,111.106c0,0-2.67-3.11-4.686-3.08c0,0-1.566-0.184-2.615,1.233c0,0-0.352,0.739-0.637,0.694
		c0,0-0.775,0.664,0.303,1.125c0,0,1.232,0.432,4.576,4.415c0,0,0.283,0.031,0.477,1.116c0,0,0.217,1.416,1.135,0.357l2.066-2.533
		C123.403,114.434,124.438,112.654,122.784,111.106z M121.521,114.789l-4.402-4.094c-1.129-0.504-0.318-1.285-0.318-1.285
		c0.773-0.732,2.105,0.337,2.105,0.337c1.49,0.868,2.916,2.739,2.916,2.739C122.651,113.729,121.521,114.789,121.521,114.789z"/>
	<path d="M118.517,105.359c0,0-0.688,0.689,0.391,1.043l6.135,4.437c0,0,0.49,0.713,0.902,0.19l0.48-0.491
		c0,0,0.529-0.654-0.213-0.965c0,0-0.533-0.073-1.82-0.944c0,0-3.486-2.738-4.152-3.1
		C120.239,105.529,119.28,104.135,118.517,105.359z"/>
	<path d="M125.792,96.436c0,0-1.621-0.819-1.889-0.055c0,0-0.484,0.568,0.494,1.327l1.426,1.394c0,0,0.623,0.549-0.32,0.408
		l-1.857-0.504c0,0-0.836-0.476-1.176,0.417c0,0-0.586,0.488,0.51,1.531c0,0,3.779,3.612,3.869,4.127c0,0-1.152-0.304-5.332-2.063
		c0,0-0.918-1.073-1.473,0.182c0,0-0.635,0.818,0.635,1.198l7.051,2.534c0,0,0.914,0.265,1.197-0.344c0,0,0.639-0.615-0.104-1.401
		l-3.873-4.265c0,0-0.383-0.314,0.242-0.291l3.502,0.97c0,0,0.893-0.016,0.359-0.651l-2.871-2.947c0,0,5.553,0.979,5.607,1.824
		c0,0,0.66,0.719,0.848-0.214l0.289-0.605c0,0,0.596-0.968-0.678-0.958"/>
	<path d="M60.601,7.832c0,0.711-0.648,1.324-1.395,1.318c-0.821,0.02-1.444-0.57-1.426-1.291c-0.06-0.678,0.574-1.376,1.401-1.383
		C59.951,6.556,60.611,7.057,60.601,7.832z"/>
	<path d="M82.026,7.199c0.014,0.702-0.635,1.31-1.381,1.322c-0.824,0.018-1.443-0.585-1.43-1.295
		c-0.061-0.69,0.582-1.388,1.402-1.382C81.37,5.924,82.048,6.425,82.026,7.199z"/>
	<path d="M127.733,39.056c0.006,0.698-0.643,1.313-1.389,1.32c-0.834,0.019-1.439-0.582-1.422-1.309
		c-0.068-0.673,0.574-1.373,1.395-1.367C127.085,37.778,127.735,38.284,127.733,39.056z"/>
	<path fill="#323434" d="M139.038,80.49l-0.439,0.244c0.615,3.76-0.531,7.533-2.322,10.812c-0.451,0.833-0.953,1.635-1.504,2.403
		l-0.094,0.124l0.145,0.507c0,0.186-0.033,0.385-0.051,0.568c-0.094,0.556-0.354,1.097-0.645,1.571l0.42-0.26
		c0.275-0.432,0.467-0.909,0.615-1.417c0.111-0.369,0.111-0.739,0-1.11l0.012-0.201c0.568-0.768,1.07-1.601,1.535-2.416
		C138.487,88.037,139.651,84.23,139.038,80.49"/>
	<polyline fill="#323434" points="126.569,84.263 126.556,84.293 126.569,84.263 	"/>
	<path d="M125.294,92.933c-0.129-0.342-0.533-0.261-0.418,0.247c-0.033,1.784,1.469,2.169,1.582,2.246
		c0.42,0.311,1.549,0,2.197,0.725l0.191-0.23l-0.967-1.05l-0.018,0.496c0.098,0.137-0.613-0.633-1.115-0.662
		c-0.223-0.018-0.594,0-0.773-0.154L125.294,92.933"/>
	<path fill="#323434" d="M126.499,91.984c0.146,0.203,0.34,0.4,0.477,0.625c0.057,0.1,0.105,0.2,0.148,0.304
		c-0.068-0.207-0.148-0.401-0.246-0.565C126.813,92.248,126.667,92.117,126.499,91.984 M126.11,89.604c0,0.007,0,0.01-0.004,0.014
		C126.11,89.614,126.11,89.611,126.11,89.604 M126.153,89.451c-0.006,0.01-0.008,0.02-0.008,0.029
		C126.146,89.47,126.147,89.46,126.153,89.451"/>
	<path fill="#323434" d="M127.124,92.913c0.164,0.518,0.217,1.123,0.076,1.574l0,0C127.362,93.962,127.333,93.417,127.124,92.913
		 M126.106,89.618c-0.154,0.658-0.102,1.183-0.406,1.821c0,0,0.447,0.273,0.799,0.545c-0.045-0.061-0.088-0.127-0.121-0.191
		C125.999,91.122,125.935,90.345,126.106,89.618 M126.146,89.48c-0.014,0.041-0.025,0.084-0.035,0.124
		C126.12,89.564,126.132,89.521,126.146,89.48 M126.618,89.066l-0.42,0.23c-0.018,0.054-0.033,0.104-0.045,0.154
		c0.012-0.051,0.029-0.104,0.045-0.154L126.618,89.066L126.618,89.066"/>
	<path fill="#020C0C" d="M126.618,89.066l-0.42,0.23c-0.016,0.05-0.033,0.104-0.045,0.154c-0.006,0.01-0.008,0.02-0.008,0.029
		c-0.014,0.041-0.025,0.084-0.035,0.124c0,0.007,0,0.01-0.004,0.014c-0.172,0.728-0.107,1.504,0.271,2.175
		c0.033,0.064,0.076,0.131,0.121,0.191c0.168,0.133,0.314,0.264,0.379,0.363c0.098,0.164,0.178,0.358,0.246,0.565
		c0.209,0.504,0.238,1.05,0.076,1.574l0.438-0.244c0.063-0.221,0.092-0.432,0.092-0.631c0-0.719-0.367-1.341-0.834-1.942
		c-0.33-0.392-0.463-0.912-0.467-1.434C126.425,89.829,126.499,89.417,126.618,89.066"/>
	<path fill="#020C0C" d="M128.655,91.131l-0.422,0.244c-0.129,0.495-0.273,1.003-0.402,1.511l0.402-0.248
		C128.378,92.13,128.507,91.623,128.655,91.131"/>
	<path d="M128.878,88.866c-0.24-1.431,0.711-3.496,1.375-4.542c-0.082,0.123-1.584,2.108-1.826,3.312
		c-0.08,0.354-0.08,1.106,0.035,1.478L128.878,88.866"/>
	<path fill="#323434" d="M127.384,85.714c0,0.003-0.006,0.007-0.006,0.01c-0.004,0.007-0.004,0.007-0.004,0.007
		S127.378,85.724,127.384,85.714 M129.366,83.09l-0.422,0.247c-0.768,0.635-1.48,2.206-1.561,2.377
		C127.899,84.778,128.511,83.782,129.366,83.09"/>
	<path fill="#020C0C" d="M128.927,89.608l-0.42,0.261c-0.291,0.213-0.514,0.554-0.547,0.922l0.225-0.124l0.193-0.12
		C128.427,90.175,128.622,89.822,128.927,89.608"/>
	<path d="M14.3,86.667c0.277,1.133,0.803,2.7-0.896,3.572c0,0,0.368,0.181,0.27,0.646c-0.016,0.07-0.007,0.354,0.51,0.635
		c0,0.01-0.005-0.973,0.337-1.22c1.341-0.977,0.411-3.476,0.144-3.717C14.286,86.232,14.291,86.613,14.3,86.667z"/>
	<path d="M21.021,90.123c-0.188-0.004-1.225-0.422-1.151,0.685l0.75-0.12l0.328-0.274L21.021,90.123z"/>
	<path d="M19.011,92.628l0.371,0.167c0.024-0.013,0.042-0.919,0.049-1.176l-0.275-0.03L19,91.867
		C19,91.867,18.702,92.425,19.011,92.628z"/>
	<path d="M16.855,94.487l0.582-0.458c-0.063,0.026,0.414,0.244,0.645,0.197c0.196-0.03,0.736-0.843,0.969-1.133l-0.429,0.247
		C18.622,93.34,16.862,93.056,16.855,94.487z"/>
	<path d="M22.683,88.671c-0.229-0.029-0.622-0.1-0.837-0.017c-0.301,0.113-0.531,0.441-0.699,0.719
		c0.285,0.094,1.014-0.308,0.65-0.144C22.62,88.975,22.627,88.668,22.683,88.671z"/>
	<path d="M22.189,86.108c-0.161,0.07-0.221-0.237-0.624,0.033c-0.354,0.251-0.143,0.368-0.297,0.435
		c0.312,0.061,0.54-0.01,0.739-0.104L22.189,86.108z"/>
	<path d="M18.765,83.384c-0.433,0.494-1.647,0.15-1.872,0.28c-0.401,0.208-0.789,0.756-0.9,1.233l0.413-0.077
		c0.093-0.207,0.456-0.849,0.778-0.805c1.736,0.207,1.903-0.512,2.008-0.879L18.765,83.384z"/>
	<path d="M22.373,81.697c-0.033,0.271-0.061,0.551-0.103,0.818l0.226-0.12l0.202-0.127c0.035-0.271,0.062-0.552,0.105-0.818
		l-0.213,0.117L22.373,81.697z"/>
	<path d="M23.083,83.979c0.131,0.312-0.161,0.648-0.393,0.825l0.429-0.247c0.229-0.177,0.51-0.518,0.38-0.825L23.083,83.979z"/>
	<path d="M141.231,69.965l-0.477,0.007c0.008,0.322,0.008,0.646,0.008,0.966c0,38.204-30.689,69.387-68.961,69.868
		c-0.309,0.003-0.618,0.007-0.926,0.007c-38.164,0.003-69.385-30.72-69.917-69.046c-0.004-0.321-0.006-0.642-0.006-0.962
		C0.954,32.586,31.641,1.41,69.915,0.913c0.302-0.003,0.602-0.005,0.901-0.005c38.166-0.003,69.408,30.71,69.939,69.064
		L141.231,69.965l0.477-0.005C141.173,31.142,109.538,0.002,70.816,0c-0.304,0-0.608,0.002-0.913,0.005
		C31.072,0.516-0.002,32.122,0,70.805c0,0.323,0.002,0.647,0.007,0.972c0.536,38.794,32.148,69.938,70.869,69.941
		c0.313,0,0.625,0,0.94-0.004c38.83-0.494,69.9-32.11,69.9-70.776c0-0.324-0.004-0.651-0.008-0.978L141.231,69.965"/>
	<path d="M8.916,91.01v0.018V91.01z"/>
	<path d="M141.194,77.952c-0.611,1.285-2.732,2.491-3.982,2.855c-1.152,0.321-2.203,0.716-3.377,0.876
		c-2.65,0.381-4.604,0.956-6.736,2.577c0.084-0.061-0.178-0.014-0.365,0.017c0.387-1.537,0.691-3.102,0.922-4.652
		c0.932-6.201,0.803-12.568-0.318-18.763c0.004-0.06-2.418-11.058-5.537-16.363c-4.867-8.285-10.027-15.868-19.338-21.747
		c-0.318-0.202,13.705,10.353,20.572,25.601c-0.229-0.261-2.223-1.877-3.859-0.513c-0.23,0.192-0.875,1.662,0.297,2.421l0.299,0.082
		l-0.014,0.01c-0.094,0.32-0.053,0.651,0.217,0.816l-0.023,0.038c-0.863,1.158-1.613,2.514-1.953,3.905
		c-0.221,0.858-0.217,1.822,0.469,2.466c0.719,0.676,3.088,0.914,3.088,0.9c0.012,0.061,1.039,10.548,1.045,14.769l-4.641,3.898
		c-0.166-0.322-0.119-2.506-0.121-3.438c-0.008-5.361-0.418-10.682-1.83-15.877c-0.564-2.095-1.482-4.286-2.564-6.187
		c0,0,1.691,4.685,2.287,6.954c1.354,5.17,1.686,10.461,1.693,15.775c-0.01,0.994,0.102,2.126,0.105,3.12
		c-0.004,0.183,0.018,0.355,0.217,0.261c0.238-0.104,4.867-4.176,4.945-4.199c0.174,0.581,0.402,1.026,1.045,1.103
		c0.398,0.044,0.92-0.029,1.299-0.12c0.697-0.157,1.525-0.334,2.344,0.223c-0.014,0.168-0.016,0.346-0.037,0.513
		c-0.662-0.258-1.613,0.442-1.822,0.331c0.875,0.484,1.275-0.231,1.775,0.075c-0.027,0.339-0.059,0.672-0.094,1.016
		c-0.305-0.229-0.611-0.492-0.611-0.492s0.311,0.657,0.574,0.943c-0.057,0.408-0.113,0.749-0.158,1.153
		c-0.064-0.051-1-0.465-1.111-1.103l-0.369-0.035c-0.311,0.336,0.779,1.268,1.447,1.382c-0.09,0.68-0.162,1.157-0.264,1.743
		c-0.709,0.21-1.842,0.478-2.08,0.18c0.176-0.057,0.883-0.595,0.736-0.571c-0.502,0.087-1.359-0.559-1.359-0.549
		c0.01,0.271,0.125,0.556,0.156,0.813c-0.473-0.094-1.563-0.131-1.689-0.134c-0.273-0.007-0.773,0.181-0.941,0.388
		c-0.715,0.852-3.295,3.469-3.586,3.553c-0.182-0.185-0.102-0.482-0.021-0.713c0.744-2.188-0.225-3.342-0.225-3.328
		c0.096,1.3-0.307,2.543-1.154,5.518c-0.232,0.842,2.131-0.615,2.816-1.384c2.414-2.737,3.07-2.169,3.098-2.195
		c-0.275,2.914-0.926,5.798-1.682,8.639c-0.357,1.381-0.689,2.809-1.174,4.135c-0.15,0.415-0.33,0.815-0.34,1.27
		c-0.023,1.094,1.451,0.729,2.303,0.414c-3.225,6.435-7.756,12.19-13.285,17.067c-1.271,1.113-2.564,2.166-3.855,3.155
		c-1.475-0.772,0.109-4.906,0.529-5.938c1.055-2.702,2.502-5.26,3.756-7.873c0.627-1.294,1.154-2.646,1.842-3.911
		c1.598-2.994,1.637-3.769,1.611-3.788c0.451-0.051,1.006-0.242,1.408-0.553c-0.055,0.309-1.867,4.562-2.705,6.434
		c-0.813,1.802-1.672,3.583-2.559,5.354c-0.648,1.313-1.447,2.536-2.146,3.835c-0.965,1.759-1.627,3.83-1.896,5.832
		c0.002-0.097,0.328,0.415,0.428-0.248c0.447-3.398,2.672-6.05,4.184-9.048c1.805-3.546,3.518-7.359,4.732-11.149
		c0.23-0.719,0.473-1.474,0.5-2.235c0.018-0.355,0.27-0.499,0.516-0.772c0.395-0.455,0.805-1.026,0.742-1.642l-0.414,0.238
		c0.049,0.537-0.27,1.022-0.592,1.437c-0.115,0.178-0.688,0.611-0.662,0.819c0.004,0.307,0.01,0.537-0.07,0.858
		c-0.053,0.02-1.236,0.77-1.732,0.525c-0.27-0.141-0.385-0.392-0.633-0.528c-0.785-0.451-1.998-0.117-2.709,0.297
		c-1.094,0.661-3.098,2.227-3.316,1.006c0.457,0.11,1.152-0.308,1.971-0.999c1.537-1.304,4.66-1.701,4.66-1.701
		c0.088-0.207,0.93-0.531,0.93-0.531c-0.996-0.111-3.896,0.625-6.75,2.566c0.967-0.889,1.352-1.567,1.77-2.543
		c-0.123,0.086,3.066-1.785,4.285-2.962c0.748-0.722,0.635-0.046,1.094-0.981c1.42-2.888,2.145-7.106,2.492-10.325
		c0.438-4.172,0.459-8.504-0.232-12.651c-0.746-4.604-1.889-9.305-3.984-13.506c0.18-0.082,0.355-0.176,0.529-0.27
		c0.229-0.146,0.313-0.694-0.088-0.528c-2.834,1.149-7.818,1.41-8.984,1.262c-0.709-0.074-1.393-0.113-1.902-0.662
		c-0.189-0.214-1.525-3.052-1.412-3.563c6.801,0.659,9.58-1.672,10.043-3.012c0.291-0.83-2.061-4.706-2.426-5.218l0.016-0.011
		c-3.299-10.045,1.281-10.255,1.434-10.302c-0.314,0.035-5.482-0.617-2.531,8.747c-2.551-3.809-5.461-6.35-5.461-6.35
		c0.457,0.845,0.48,0.782,0.66,1.239c-1.393-0.64-4.605-1.718-4.752-1.732c-0.18-0.348-0.357-0.706-0.547-1.079
		c3.248,1.441,4.008,0.38,4.154,0.335c-0.836,0.24-3.982-0.895-4.729-1.573c-0.449-0.992-1.266-2.933-1.34-2.914
		c0.596,1.671,0.98,3.555,1.805,5.133c-0.186-0.041-0.371-0.082-0.547-0.174c-0.381-0.166-1.422-1.416-1.791-1.597
		c-0.223-0.102,0.256,0.866,0.031,0.761c-0.098-0.049-1.369-1.613-1.617-1.714c-0.232-0.103,0.09,1.023-0.154,0.932
		c-0.938-0.367-3.047-1.135-3.033-2.484c0.277-0.082,0.551-1.091,0.734-1.628c0.695-0.378,1.295-2.193,1.326-2.585l-0.193-0.089
		c0,0-0.48,0.822-0.723,1.015c0.043-0.355,0.043-0.722-0.129-0.984c-0.313-0.46-2.551-1.084-2.807-1.153l-0.551-0.011
		c-0.07-0.014,1.41,0.521,2.07,0.854c1.207,0.603,0.598,2.391,0.568,2.491c-0.311-0.475-0.777-0.89-1.219-1.168
		c-0.32-0.203-0.688-0.516-1.027-0.66c-0.176-0.075-0.242,0.179-0.256,0.155c0.371,0.289,1.17,1.042,1.248,1.105
		c0.398,0.427,0.773,0.9,0.904,1.307c0,0.014-0.102,0.564-0.221,0.842c-0.32-0.595-0.695-1.143-1.129-1.643
		c-0.27-0.313-1.43-1.368-3.105-2.057c-1.875-0.761-4.184-3.165-4.783-4.151c0.957,1.58,2.092,3.349,3.789,4.13
		c0.959,0.439,2.361,1.17,2.352,1.192c-0.393,1.416-2.059,2.448-2.639,2.287c0.801,0.215,1.672-0.111,2.211-0.541
		c0.43-0.332,0.791-0.807,1.072-1.303c1.002,0.821,2.012,2.681,2.031,2.682c-0.107,0.477,0.568,1.398,0.859,1.674
		c1.391,1.258,3.316,1.877,5.063,2.464c1.342,0.458,6.287,1.977,7.32,2.476c0.07,0.125,3.859,4.83,5.172,7.473
		c0.348,0.704,1.732,4.342,1.654,4.414c-2.383,2.204-8.406,2.163-8.406,2.163s-0.689-1.401-1.133-1.178c0,0-1.127-1.766-1.311-1.477
		c0,0,1.186,2.271,0.912,4.525c0,0,0.191,1.292,0.49,0.745c0,0,0.02-1.313,0.6-0.565c0.213,0.423,0.617,1.401,0.639,1.523
		c0.098,0.616,1.338,1.294,1.352,1.294c0.375,1.614,1.049,3.212,1.938,4.701c0.256,0.744,2.008,4.227,2.484,5.293
		c0.475,1.053,0.543,2.246,0.732,3.366c0.295,1.821,1.34,11.57,1.34,11.57c-0.057,2.523-0.355,5.144-1.076,7.56
		c-0.352,1.203-1.816,4.349-6.115,5.352c-0.676,0.156-1.41,0.09-2.121,0.127c1.416-0.902,2.563-2.176,3.025-3.827
		c-0.027,0.11-2.492,3.409-4.465,3.867c0.719-0.585,1.574-1.498,2.705-3.155c0.357-0.531,0.645-1.173,0.957-1.73
		c0.561-1.007,0.291-2.794,0.262-2.892c0.361,0.595,0.674,1.24,0.744,1.858c-0.006-0.063,0.301,0.435,0.34-0.094
		c0.063-1.08-0.846-2.373-1.51-3.195c-0.617-0.738-1.189-1.537-1.854-2.236c-1.266-1.338-3.035-2.357-4.893-2.693
		c-0.313-0.044-2.188-1.299-2.957-1.624c-0.928-0.397-1.916-0.675-2.922-0.782c-0.273-0.033-0.436-0.183-0.676-0.324
		c-1.623-1.001-4.26-0.04-4.26,0.008c-0.977-0.673-4.105-2.174-4.105-2.185c0.293-1.296,0.936-2.521,1.549-3.695
		c0.6-1.129,2.176-3.709,2.303-3.904c0.014-0.036-1.217-2.283-1.42-3.87c1.107-0.12,2.189-0.65,3.125-1.352
		c-0.125,0.092-4.902,2.332-7.094-0.938l-0.588-0.343c-0.199-0.166-0.314-0.389-0.412-0.612c-0.088-0.308,0.027-0.649,0.082-0.965
		c0.031-0.15,0.709-3.212,0.811-3.958c0.246-1.53-0.836-3.086-2.063-3.934c-0.029-0.038,1.189,1.228,1.576,2.792
		c-1.846,0.268-3.49,1.486-5.172,2.148c-2.16,0.861-3.272,1.624-5.328,2.276c-1.324,0.431-7.066,1.914-11.457,0.664
		c-0.089-0.027-1.446,0.116-2.411-0.739c-0.522-0.463-0.531-1.275-0.54-1.935c-0.03-0.861,1.361-4.338,2.038-5.687
		c2.06-4.213,5.008-8.054,8.142-11.568c0.539-0.587,1.611-2.342,1.8-2.62c1.224-1.104,3.41-2.235,3.299-2.176
		c1.703-1.191,2.763-1.363,5.076-1.754c0,0,0.273,1.255,0.943,1.309c2.482,0.186,4.334,0.914,5.018,1.394l-0.014,0
		c0.768,0.875,1.236,4.307,1.279,4.809c0.021,0.202-0.41,0.938-0.961-0.08c0.098-0.341-0.26-2.911-1.408-4.176
		c-0.225-0.226-0.91-0.584-1.742-0.785c0.904,0.361,1.582,1.151,1.82,1.646c0.41,0.769,0.861,1.724,1.012,3.124
		c0.01,0.148-0.715,1.509-1.453-1.088c-0.268-0.912-0.939-2.104-1.893-2.234c-0.545-0.072-2.125-0.61-4.917,0.827
		c0.876-0.459,5.511-1.771,6.152,1.297c-0.754,0.278-1.572,0.324-2.334,0.343c-1.133,0.036-2.209-0.219-3.363,0
		c-0.827,0.166-1.718,0.148-2.39,1.48c-0.838,1.641-1.697,3.303-2.454,4.98c-0.261,0.57-0.458,1.106-0.662,1.7
		c-0.315,0.893-1.738,3.45-1.997,3.875c-0.646,0.991-1.192,2.048-1.947,2.95l0.388,0.082c1.074-1.302,2.289-3.374,2.289-3.374
		c1.483-0.706,4.007-2.318,5.067-3.584c2.341-2.797,4.917-4.644,8.151-6.865c-0.113,0.07,0.51,0.563,1.084,0.476l0.43-0.248
		c-0.027,0.011,1.408,1.43,1.563-0.444c0.088-1.055-0.582-3.472-0.873-3.996c0.225,0.227,1.057,0.847,1.291,4.323
		c0,0,0.773,0.346,1.076,1.372c-0.021-0.073,0.223-1.026-0.586-1.522c-0.295-0.175-0.268-0.507-0.26-0.792
		c0.049-0.931-0.158-1.865-0.609-2.686c-0.758-1.354-2.078-2.266-3.527-2.688c-0.516-0.161-1.879-0.399-2.711-0.431
		c-0.686-0.024-0.885-0.555-0.898-1.206c0-0.292,0.469-0.396,0.406-0.729c-0.07-0.356-0.355-0.853-0.422-1.284h0.025
		c0.283,0.055,0.547,0.136,0.813,0.213c0.203,0.054,0.57,0.208,0.771,0.152c0.025,0,0.096,0.076,0.205-0.118
		c0.127-0.181-0.527-0.463-0.836-0.546c-0.313-0.091-0.645-0.087-0.904-0.327c-0.33-0.297-0.229-0.959-0.08-1.327l0.564,0.345
		c0.813,0.262,1.281-0.436,1.373-0.755c-0.93,1.023-1.857,0.058-1.857,0.069c-0.025,0.013-0.223,0.034-0.504,0.348
		c-1.076,0.256-0.889-0.856-0.77-1.292c0.322-1.125,0.891-2.179,1.246-3.302c0.16-0.522,0.059-1.136,0.07-1.689
		c0.031-1.384,1.24-3.762,1.383-4.017c0.143-0.22,0.441-0.297,0.48-0.31c0.137,0.017,0.813-0.131,0.744-0.451l-1.516-0.093
		l-0.43,0.273l-0.014,0.013c0.188,0.017,0.42,0.08,0.658,0.148c-0.268,0.251-1.318,2.375-1.535,3.047
		c-0.018-0.811,0.371-2.705,0.361-2.9c0.004-0.245-0.162-0.421-0.211-0.656c-0.102-0.382,0.316-0.619,0.629-0.833
		c1.732-1.152,3.775-1.882,5.832-2.168c5.666-0.774,9.928,1.231,11.188,2.163c2.02,1.506,3.039,3.762,3.26,6.169
		c-0.521,1.081-1.051,2.662-1.514,3.722c-1.715,3.975,0.754,4.849,0.764,4.874c-1.047-0.721-0.705-3.439-0.326-4.927
		c0.273-1.062,0.645-2.121,1.111-3.128c0,0.026-0.189,2.389-0.078,3.566c0.117,1.426,0.037,4.039,4.344,4.634
		c0.553,0.183-0.277-1.579-0.277-1.579c-0.467-1.309-1.322-1.166-1.322-1.166c-1.25-0.226-1.902-0.62-2.145-0.797
		c-0.111-0.495-0.176-0.998-0.213-1.487c0.449-0.115,2.025,0.607,2.025,0.607c1.576,0.708,0.771-1.05,0.771-1.05
		c0.01-1.252-0.918-0.931-0.918-0.931c-0.744,0.036-1.543-0.547-1.834-0.775c0.035-0.574,0.049-1.153,0.025-1.714
		c0.363-0.165,1.227,0.27,1.227,0.27c1.127,0.688,0.785-0.558,0.785-0.558c-0.057-0.822-1.178-0.871-1.178-0.871
		c-0.498-0.074-0.861-0.313-1.094-0.551c-0.096-0.371-0.197-0.716-0.34-1.064c0.996,0.583,1.994,0.458,2.561,0.15
		c0.029-0.01,1.348-0.692,2.518-3.453c0.273-0.642,1.299-2.705,1.303-2.949c-0.004-0.25,1.023-0.103,0.816-0.635
		c-0.023-0.221-1.188-0.603-1.328-0.69c-0.68-0.36-0.871-0.18-0.896-0.165l0.025,0.012c-0.189,0.189-0.07,0.426-0.018,0.761
		c0.09,0.492-1.291,3.896-2.037,5.011c-0.332,0.504-0.707,0.951-1.352,0.84c-0.568-0.101-1.379-0.593-1.189-1.264
		c0.369-0.923,1.631-4.014,1.883-4.646c0.406-0.973,0.785-1.161,0.795-1.172h0.014c0.656-0.418-0.615-0.765-0.875-0.866
		c-0.516-0.222-0.988-0.451-1.504-0.685c-0.383-0.179-0.771,0.01-0.771,0.01c-0.23,0.215,0.035,0.626,0.053,0.908
		c0.021,0.258-0.781,2.267-1.076,3.019c-0.328,0.827-1.025,2.654-1.063,2.75c-0.498-0.427-1.053-0.793-1.645-1.101l0.15-0.143
		c0.492-0.824,0.225-2.146-0.473-2.761c1.391-0.422,1.883-2.253,1.084-3.422c-0.775-1.156-2.289-1.228-3.523-1.497
		c-0.496-0.11-0.99-0.244-1.488-0.375c-0.234-0.068-0.912-0.279-0.979-0.021l-0.018,0.012l0.043,0.393
		c0.283,0.644,0.225,1.269,0.059,1.914c-0.354,1.33-0.707,2.65-1.057,3.966c-1.949-0.252-3.807-0.044-5.584,0.467
		c-0.096-0.21,0.113-1.246,0.162-1.565c0.023-0.17,0.156-0.648-0.064-0.736c-0.395-0.18-1.137,0.784-1.365,1.026
		c-0.459,0.541-1.014,0.896-1.703,1.091c-0.309,0.103-1.09,0.356-1.092-0.197c-0.002-0.315,0.021-2.486,0.01-3.25
		c0.725-0.142,1.32,0.014,1.701,0.7c0.088,0.147,0.561,0.06,0.648-0.098c0.109-0.219,0.109-1.63,0.023-2.049
		c-0.047-0.208-0.701,0.145-0.754,0.182c-0.422,0.163-1.371,0.228-1.639-0.108c-0.01-0.787-0.012-1.571-0.012-2.368
		c0.314-0.033,0.703,0.016,0.965,0.032c0.594,0.036,1.162,0.259,1.611,0.634c0.344,0.276,0.545,0.653,0.92,0.586
		c0.029,0,0.5-0.137,0.246-1.013c-0.096-0.309-0.193-0.826-0.449-1.066c-0.146-0.139-3.34-0.278-3.988-0.319
		c-0.617-0.02-1.857-0.285-2.355,0.219c-0.196,0.181-0.046,0.38,0.112,0.509c0.333,0.264,0.381,0.73,0.45,1.114
		c0.086,0.649,0.113,5.068,0.107,5.262c-0.006,0.383-0.309,1.49-0.532,2.271c-0.113,0.355,3.987,0.077,4.737-0.032
		c-0.602,0.268-1.205,0.576-1.787,0.904c-0.578,0.332-1.607,0.743-1.539,1.663c0.016,0.367,0.273,0.604,0.213,0.999
		c-0.086,0.486-0.254,0.962-0.309,1.464c-0.074,0.735-0.055,1.508,0.055,2.246c-0.092,0.588,0.021,1.13-0.027,1.738
		c-0.035,0.396-0.805,1.999-0.961,2.435c-0.2,0.611-0.757,1.458-0.295,2.066c0.401,0.537,1.262,0.337,1.297,0.312
		c0,0-0.684,1.187,0.053,1.606c-0.195,0.416-0.328,1.369-0.148,1.765c-1.037,0.173-2.165,0.334-3.153,0.68
		c-0.962,0.349-1.914,0.978-2.767,1.522c-0.156,0.098-2.276,0.884-4.139,4.193c-0.117,0.207-1.164,1.386-1.509,1.809
		c-3.431,4.023-6.581,8.52-8.431,13.462c-0.489,1.3-1.323,3.519-0.417,4.735c-3.195-0.128-6.389-0.233-9.584-0.301
		c-1.712-0.038-3.435-0.061-5.148-0.038c-1.07,0.026-2.239,0.479-2.239,0.479c1.605-0.173,3.238-0.112,4.854-0.104
		c1.738,0.024,11.276,0.293,11.673,0.351c0.475,0.058,0.873,0.029,0.896,0.007c0.706,0.638,1.721,0.44,2.597,0.68
		c1.732,0.479,3.707,0.586,5.512,0.462c1.847-0.106,3.368-0.246,4.64-0.368c3.045,0.065,6.213,0.269,8.711-0.146
		c-2.342,0.026-4.665-0.036-7-0.087c0.236-0.044,8.807-3.981,10.131-4.248c-0.004,0.255-0.045,0.516-0.127,0.771
		c-0.254,0.78-0.613,2.907-0.646,3.32c-0.021,0.283-0.203,0.537-0.207,0.82c0.006,0.808,0.816,1,1.264,1.513
		c1.469,1.638,3.07,1.816,3.693,1.818c0.025,0.835,1.17,3.707,1.475,4.094c0.025,0.023-2.746,4.014-3.744,7.243
		c-0.219-0.079-1.262-0.308-1.293-0.478c-0.193-0.93-0.732-1.799-1.328-2.524c-0.398-0.484-0.83-1.096-1.492-1.161
		c-0.471-0.045-0.967-0.095-1.438-0.142c-3.711-0.372-7.423-0.731-11.125-1.093c-1.502-0.145-3.173-0.398-4.691-0.545l-0.441,0.334
		c0.569,0.652,1.163,1.323,1.738,2.015c-0.99,0.026-2.043-0.03-3.014,0.007l-0.181,0.193l-0.026,0.011
		c0.417,0.352,0.783,0.789,1.17,1.204c-1.573,0.221-2.809,0.37-3.647,1.808c-0.078,0.162-0.666,1.499-1.92,2.56
		c-0.558,0.481-1.268,0.993-1.18,1.976c0.045,0.371,0.442,0.43,0.852,0.378l-0.01,0.01l-0.039,0.025
		c-0.167,0.167-3.732,3.286-4.412,6.429c-0.454,2.088,0.622,6.279,0.801,7.105c0.207,1.002,1.051,7.68,0.867,10.35
		c-0.028,0.193,0.319,7.12,0.464,8.453c0.079,0.771,0.48,0.781,0.48,0.781c0.867,0.178,1.733,0.368,2.518,0.781
		c0.359,0.189,0.713,0.428,0.857,0.815c0.102,0.344,0.019,0.734,0.122,1.093c0.434,1.287,2.534,0.559,3.473,0.501
		c1.57-0.097,3.165,0.392,4.745,0.435c0.319,0.006,2.772-0.174,3.154,0.117c0.173,0.113,0.278,0.314,0.448,0.438
		c0.797,0.558,1.857-0.203,1.938-0.277c0.38-0.344,1.402-1.638,1.545-1.892c0.024,0.699,0.907,1.784,0.792,2.016
		c-0.041,0.077-2.176,2.038-2.379,2.931c-0.081,0.341-0.168,0.696-0.262,1.035c-6-0.263-21.504-0.751-23.234-0.801
		c-0.869-0.03-0.412,0.565-0.412,0.565c5.966,0.274,21.191,0.452,23.555,0.529c-0.014,0.022-0.292,0.791-0.232,1.55
		c0.01,0.114-2.268,2.173-2.655,4.7c-0.132,0.849,0.576,0.911,0.678,0.892c-0.118,0.057-1.531,1.07-4.531,1.618
		c-10.997-2.307-20.862-7.891-28.766-15.74c-4.207-4.173-7.634-9.01-10.259-14.242c-0.112,0.146-1.547,1.399-3.116,1.835
		c0-0.492-0.397-1.017,0.443-1.23c0.622-0.157,0.545-1.103,0.622-1.25c0.102-0.157,0.971-0.629,1.337-0.84l0.001-0.012
		c0.275-0.195,1.524-1.602,1.945-1.973c0.419-0.371,0.684-0.955,0.792-1.504c0.087-0.451,0.265-0.585,0.964-0.705
		c0.697-0.131,1.018-1.119,1.051-1.534c0.032-0.354-0.301-0.912-0.393-1.26c-0.231-0.775-0.11-1.828,0.196-2.3
		c0.426-0.655,1.174-1.276,0.035-2.529c-0.344-0.375-0.151-1.17-0.14-1.695c0.044-0.785-0.501-1.985-3.231-0.046
		c-0.182,0.134-0.422-0.215-0.694-0.175c-0.263,0.034-0.921-0.066-1.549,1.28c-0.154,0.342-0.506,0.481-0.89,0.361
		c-0.284-0.104-0.649,0.134-0.938,0.274c-0.303,0.153-0.728,0.217-1.074,0.271c-0.14-0.542-0.252-1.073-0.366-1.628
		c-2.409-12.058-0.927-24.516,4.566-35.547c3.555-7.139,7.722-13.894,13.928-18.988l-0.427,0.249
		c-9.578,7.867-15.517,18.842-18.367,30.781c-2.055,8.566-2.09,17.814-0.098,26.386l0.056,0.204c0.529-0.244,1.9-1.478,2.048-1.474
		c2.013,0.113,1.847-0.735,2.164-1.193c0.262-0.378,0.541-0.602,1.008-0.521c0.387,0.07,0.612,0.063,1-0.087
		c0.6-0.234,1.398-0.815,2.004-0.723c0.498,0.063,0.316,0.488,0.133,1.391c-0.094,0.432-0.08,0.859,0.437,1.13
		c0.711,0.344,0.485,0.933,0.189,1.511c-0.198,0.374-0.587,0.652-0.745,1.04c-0.21,0.574,0.2,1.069,0.203,1.954
		c-0.002,0.178,0.361,1.146,0.349,1.297c-0.037,0.492-0.941,0.983-1.688,0.923c-0.204-0.02-0.41,0.541-0.414,0.712
		c-0.049,0.367-0.056,0.749-0.2,1.122c-0.214,0.563-0.845,0.977-1.35,1.312c-0.402,0.273-0.564,0.711-0.746,1.163
		c0.074,0.184-0.907,0.578-1.48,0.627c-0.95,0.094-0.503,1.29-0.581,1.462c-0.08,0.119-0.543,0.417-0.711,0.524
		c-0.41,0.247-0.595,0.982-0.679,1.494c-0.172,0.02-0.375,0.043-0.585,0.063c-0.13-1.417,0.393-2.925,0.826-4.241
		c0.604-1.789,1.385-3.517,2.243-5.204c1.08-2.136,2.146-4.161,3.459-6.166c-0.077,0.117-0.133-0.254-0.478,0.11
		c-1.288,1.972-5.914,9.989-6.111,11.059c-0.035,0.157-0.457,0.174-0.716,0.131c-0.163-0.444-0.216-0.929-0.03-1.377
		c-0.052,0.11-1.139,0.749-0.196,2.045c-0.011,0.494-0.363,1.882,0.375,2.316c0.137,0.418,0.417,1.444-0.278,1.38
		c-0.613-0.618-1.008-1.704-1.067-2.443c-0.021-0.293,0.284-0.577,0.081-1.015c-0.245-0.521-0.624-0.906-0.415-1.429
		c0.092-0.246,0.719-1.456,0.28-1.884c-1.074-1.03-0.556-1.925-0.093-2.657c0.231-0.331,1.057-0.501,0.768-1.527
		c-0.091-0.331-0.174-0.518-0.267-0.839c-0.254-0.926,0.507-1.521,1.262-1.985c-0.359-0.521-1.307-1.066-1.836-1.313
		c-1.847-0.839-3.708-1.123-5.667-1.434c-2.302-0.357-4.971-1.297-6.31-3.275l0.258,1.38c0.695,1.057,1.424,1.304,2.521,1.892
		c0.762,0.421,1.486,0.686,2.27,0.859c-0.68,0.304-1.434,0.618-1.332,1.604c0.014,0.087,0.098,1.193,0.095,1.447
		c-0.053,0.725-0.137,1.089-0.412,1.744c-0.303,0.709,0.361,1.778,0.718,2.396c0.047,0.063-0.163,0.755-0.196,0.965
		c-0.156,1.519,1.619,3.483,2.721,4.095c0.282,0.683,0.845,1.243,1.448,1.638c0.376,0.241,1.142,0.515,0.983,1.017
		c-1.897-0.803-3.687-2.14-5.283-3.637l-0.203,0.832c7.16,8.143,14.54,2.928,15.073,2.434c4.422,8.301,10.981,15.477,18.892,20.731
		c6.021,3.99,12.642,7.253,19.723,8.793c0.155,0.882,0.635,1.814,1.602,1.979c0.593,0.113,1.073-0.147,1.097-0.171
		c0.448,2.17,3.89-0.518,4.377-0.963c-0.105,0.111-3.806,2.083-3.981,1.023c-0.07-0.338,0.238-0.549,0.427-0.668
		c0.489-0.332,1.531-1.106,1.574-1.144c-1.644,0.872-2.429,1.407-2.439,1.421c-0.687,0.094-1.262,0.057-1.581-0.588
		c-0.214-0.408-0.052-0.997-0.028-1.007c0.709-0.107,1.398-0.311,2.079-0.484c3.399-0.892,7.572-4.462,7.953-5.876
		c3.774-1.464,8.776-2.132,9.008-2.356c-2.801,0.074-6.693,0.726-11.344,2.801c-1.383,0.619-2.695,1.374-2.356,1.886
		c0.286,0.435,0.953-0.25,0.953-0.25c0.412-0.703,2.821-1.692,2.833-1.708c-0.063,0.146-1.409,1.864-3.135,3.004
		c-0.152,0.066-0.969,0.835-1.477,0.1c-0.634-0.919,1.849-4.044,2.115-4.288c0.395-0.33,0.404-0.404,0.417-0.919
		c0.016-0.256,0.376-1.22,0.504-1.386c0.254-0.29,0.364-0.765,0.498-1.132c0.292-0.743,0.728-1.421,1.288-2.01
		c0.634-0.694,0.777-1.38,0.655-1.626c-0.319-0.683-0.937-1.505-0.807-2.301c-0.252-0.495-0.761,0.07-0.966,0.335
		c-0.369,0.471-1.491,2.216-2.122,2.546c-0.226,0.045-0.441-0.197-0.54-0.371c-0.108-0.174,0.207-0.34,0.2-0.487l-2.154,0.026
		c-0.324,0.004-1.621,0.221-3.131-0.2c-1.015-0.291-2.056-0.324-3.1-0.432c-0.842-0.092-1.694-0.012-2.518,0.141
		c-0.223,0.044-1.149,0.098-1.115-1.386c0.011-0.47-0.904-0.781-1.248-0.948c-0.785-0.374-2.25-0.524-2.162-0.585h0.014
		c-0.378-0.037-0.414-0.695-0.456-0.956c-0.121-0.785-0.27-5.846-0.107-7.556c0.331-3.663-0.485-7.263-1.079-10.869
		c-0.261-1.638-0.759-3.402-0.708-5.07c0.149-5.628,5.801-8.534,5.861-8.572c1.591-0.028,4.923-0.063,4.988-0.063
		c-0.737,0.233-7.921,2.702-6.835,8.732c0.477,2.638,1.794,5.121,3.238,7.356c1.598,2.467,5.771,6.711,5.796,6.701
		c-2.5-2.851-5.118-7.103-6.364-9.288c-4.519-7.834-0.112-10.17,1.026-11.091c1.88-1.521,5.442-2.301,5.49-2.324
		c0.215,1.6,2.516,1.084,2.516,1.084c0.412,0.427,7.063,7.392,7.226,7.395c4,0.104,2.162,0.251,10.564,0.481
		c0.795,0.017,9.363,0.113,9.889-0.595c0.348-0.472,0.029-1.722-0.174-2.149c-0.428-0.973-1.07-1.841-1.707-2.69
		c-0.605-0.775-1.248-1.524-1.918-2.249c1.34,0.717,2.381,2.159,3.273,3.235l0.021-0.271c-1.84-3.496-4.166-3.94-4.18-3.94h-0.012
		c-0.328-0.313-0.645-0.636-0.975-0.953c-0.318-0.322-0.658-0.616-1.016-0.892c1.775-0.859,3.512,0.038,3.795,0.066
		c0.957,0.084,1.906,0.361,2.793,0.715c0.771,0.298,2.754,1.577,3.096,1.694c1.584,0.525,3.232,1.433,4.521,2.697
		c0.658,0.639,1.418,1.293,2.033,1.982c1.045,1.801,0.795,4.018-0.561,5.729c-0.471,0.591-2.748,4.024-6.053,3.6
		c-1.143,0.036-2.297,0.05-3.455,0.05c-3.717-0.021-14.541-0.792-16.184-1.187c-1.6-0.374-2.875-1.1-3.895-2.346
		c-1.053-1.264-2.313-2.311-3.33-3.597c-1.44-1.785-3.373-3.309-3.458-3.362c-0.011-0.01,2.491,3.048,3.15,3.797
		c0.974,1.103,3.214,4.231,4.615,5.204l0.017,0.454c-0.123-0.15-3.5-1.093-6.188-5.017c-0.147-0.2-0.417-0.177-0.231,0.193
		l1.14,1.614l-1.879-1.249c-0.01,0.01-1.583-0.528-1.491,0.558c0.1,1.066,4.627,2.126,6.269,3.299
		c-0.323,0.026-4.122-1.33-5.959-0.472c-1.296,0.585-6.539-0.153-6.567-0.126c4.205,1.634,6.304,0.778,9.452,0.678
		c0.874-0.03,1.625,0.368,2.492,0.458c0.226,0.027,0.836-0.007,1.1-0.224c0.168,0.117,0.637,0.407,0.836,0.475l-0.026,0.023
		l0.026-0.014l-0.026,0.014c1.794,2.125,3.08,4.936,2.63,7.746c-0.391,2.447-2.84,4.015-5.2,4.332c-0.01,0,3.311,0.611,5.004-1.771
		c1.852-2.596,0.424-6.751,0.41-6.784c1.57,1.567,2.271,3.753,1.924,5.989c-0.236,1.494-0.627,3.041-1.244,4.428
		c-0.135,0.314-0.307,0.604-0.504,0.886l-0.27,0.334c0.049-0.023,2.141-1.229,2.621-5.965c0.031,0.247,0.063,0.491,0.08,0.735
		c0.18,1.968-0.02,5.079,0.732,6.223c0.004-0.014-0.375-3.072,0.021-5.397c0.414,0.418,2.631,2.644,2.75,2.87
		c0.438,0.913-1.947,3.728-1.961,4.412c-0.01,0.414,0.477,3.144,0.635,4.049c0.316,1.741,0.717,3.473,1.4,5.129
		c0.588,1.427,1.721,2.594,2.061,4.11c0.332,1.404-0.248,2.875-1.461,3.681c-0.154,0.113-5.656,3.148-5.918,3.371
		c-1.396,1.174-3.969,1.512-3.983,1.521c0,0-1.107,0.826-1.806,0.709c-1.092-0.154,0.138-1.171,0.545-1.521l-0.028,0.012
		c-0.022,0.012-1.854,1.312-2.663,1.185c-0.694-0.111-0.635-0.525-0.191-0.839c0.655-0.451,1.442-1.124,1.442-1.124
		c-0.063,0.027-2.004,1.247-2.481,1.374c-1.002,0.271-1.184-0.457-1.184-0.457c-0.105,0.133-0.063,1.188,1.327,0.835
		c0.352,0.842,1.452,0.746,2.335,0.213c-0.158,1.872,3.041,0.225,3.154,0.15c2.245-0.196,3.625-1.394,4.133-1.848l4.529-0.615
		c0.385,0.545,1.217,0.238,1.488,0.148c0.025,0.621,0.818,0.882,1.314,1.056c1.945,0.631,3.746-1.37,4.633-2.775l0.145-0.217
		c10.248-2.887,19.844-9.021,26.992-16.777c6.27-6.835,10.813-15.276,13.123-24.207c0.443-0.284,0.811-0.535,1.127-0.735
		c-0.197,0.324-0.15,0.595-0.488,1.254c-0.266,0.595,0.258,0.104,0.258,0.104c0.678-0.896,3.563-3.068,3.836-3.195
		c-0.326,0.769,0.238,2.362,0.125,3.462c-0.129,1.37-0.576,2.551-1.002,3.867c0,0,0.021,0.073-1.434,3.811
		c-0.371,0.999,0.895,2.363,0.984,2.422c0.061,0.037,0.141-1.476,0.723-1.954c0,0-0.137-0.397-0.053-0.849
		c0.082-0.342,3.453-8.085,5.338-10.916c1.023-1.183,1.729-1.424,2.705-1.842c0.604,3.728-0.688,7.38-2.459,10.655
		c-0.455,0.813-1.266,1.46-1.83,2.206l-0.455-0.08c-0.018-0.361,0.324-0.719,0.592-0.946c-0.127,0.104-0.725,0.217-0.98,0.937
		l-0.236,0.006c0.285-0.655,0.824-2.4,1.428-3.242c0.693-0.985,1.313-1.892,1.809-2.984c0.602-1.384,1.129-3.175,1.59-4.622
		c-0.049,0.094-0.203-0.305-0.451,0.258c-0.691,1.48-2.18,3.018-2.541,4.769c0.027-0.113,0.277,0.381,0.424-0.25
		c0.279-1.174,0.459-0.89,0.68-0.723c-0.092,0.208-0.186,0.415-0.273,0.608c-0.229,0.535-0.658,1.508-0.988,1.979
		c-0.379,0.505-1.518,2.149-1.836,2.66c-0.287,0.436-0.449,0.943-0.693,1.394c-0.576,1.104-1.861,2.009-1.9,3.199
		c0,0,0.234,0.053,0.414-0.24c0.697-1.087,1.342-1.992,2.197-2.564v-0.01c0.537-0.004,1.068,0.107,1.514,0.378
		c0.008,0.01,0.666,0.662-0.809,2.31c-0.516-0.023-1.01-0.104-1.508-0.201c-1.09-0.197-0.953,0.445-0.953,0.445
		c2.029,0.374,4.367,0.497,5.727-1.204l-0.117-0.371c-0.611,0.776-1.447,1.271-2.344,1.335c0.283-0.422,0.754-0.95,0.877-1.429
		c0.094-0.363-0.207-0.664-0.018-0.991c0.248-0.412,0.9-1.726,1.365-2.561c1.773-3.249,2.822-7.212,2.24-10.919
		c0.82-0.388,1.553-0.926,1.945-1.765L141.194,77.952z M119.472,57.085l0.555-0.382l0.416,0.328
		c0.289,1.036,0.701,0.655,0.951,0.968c-0.873-0.02-3.631-0.215-2.996-3.023c0.289-1.316,1.744-3.609,1.744-3.609
		c0.387,0.085,0.752-0.114,1.125-0.155c0.449-0.03,0.975-0.095,1.275,0.259c0.012,0.025-0.191-0.891-1.857-0.459
		c-0.135,0.035-0.75,0.195-0.557-0.563c0.246-0.03,0.557-0.011,0.693-0.315c0.492-0.97,1.336-0.368,1.336-0.378
		c-0.275-0.581-0.607-0.711-1.045-0.451c-0.406,0.236-0.416,0.703-0.939,0.752c-0.887,0.094-1.299-0.946-0.693-1.867
		c0.592-0.932,2.211-0.371,2.727-0.03c0.418,0.258,0.807,0.583,1.164,0.936c0.795,1.626,2.789,8.119,3.367,11.444l-0.402,0.101
		c-0.641-2.455-2.51-4.653-4.941-5.514c1.342,0.652,4.117,3.335,4.541,5.681c-0.24-0.525-4.152-6.029-6.605-4.561
		C118.685,56.639,119.476,57.073,119.472,57.085z M125.427,74.103c-0.438,0.078-2.33,0.648-2.467-0.926
		c0.031-4.206-1.02-15.179-1.291-16.438c0.395,0.243,0.771,0.532,1.111,0.834c0.674,0.575,1.354,1.146,1.934,1.979
		c0.174,1.869,0.598,4.589,0.705,6.443C125.538,68.034,125.86,70.887,125.427,74.103z M126.22,73.986
		c0.34-2.63-0.461-12.102-0.449-12.021c0,0,0.693-0.386,1.195,0.026c0.57,3.976,0.729,8.015,0.465,12.035
		C127.05,73.956,126.628,73.946,126.22,73.986z M120.927,82.398l0.441-0.237L120.927,82.398z M76.726,36.651
		c-3.295,1.607-6.102,4.667-8.447,7.399c-0.944,1.122-2.375,1.668-3.758,2.264c0.118-0.23,4.154-9.001,4.515-9.386
		c0.048-0.038,0.98-0.544,1.777-0.538c1.083,0.008,2.163,0.007,3.235-0.042c0.711-0.037,1.695-0.259,2.59-0.03l0.01,0.001
		l0.131,0.32L76.726,36.651z M97.644,26.842c0,0,0.574,1.483-0.896,0.582c0,0-0.814,0.23-1.234-1.598
		C95.513,25.826,97.392,26.052,97.644,26.842z M94.837,22.146c0.186-0.057,1.258,0.409,1.258,0.409
		c1.02,0.119,0.723,0.666,0.723,0.666c-0.305,0.336-1.627-0.318-1.627-0.318C94.251,22.673,94.837,22.146,94.837,22.146z
		 M96.593,8.431l0.039-0.01l-0.049,0.022L96.593,8.431z M96.456,8.503l0.078-0.033l-0.141,0.104L96.456,8.503z M87.269,5.63
		 M86.786,7.535c0.098-0.537,0.213-1.086,0.309-1.624l-0.039,0.023l0.039-0.023l0.119-0.232c0.486-0.086,1.285,0.262,1.475,0.657
		c0.41,0.817-0.021,2.097-0.992,2.2c-0.336,0.032-0.855-0.018-1.014-0.366L86.786,7.535z M86.271,9.435L86.31,9.4l0.08-0.194
		c0.414-0.063,1.09,0.173,1.387,0.362c0.561,0.369,0.189,1.268-0.041,1.814c-0.572-0.195-1.139-0.355-1.697-0.515
		C86.007,10.585,86.28,9.573,86.31,9.4L86.271,9.435z M77.384,9.138c-0.125,0.144-0.26,0.3-0.406,0.469
		C77.103,9.449,77.243,9.293,77.384,9.138z M11.925,83.815c0.259,0.094,0.533,0.194,0.804,0.338
		c0.429,0.204,1.011,0.314,1.351,0.628c-0.073,0-2.053-0.396-0.907,2.838l0.045,0.284C12.787,87.121,11.499,84.578,11.925,83.815z
		 M8.715,84.481c0.035-0.465,0.168-0.899,0.434-1.217c0.138,0.017,1.526,0.23,2.047,0.351c0.035,0.629,0.296,2.474,2.004,4.375
		c-0.095,0.538-0.779,0.966-0.964,1.527c-0.268,0.912-0.939,2.072-0.862,2.911c-0.329-0.214-0.645-0.468-0.93-0.672l-0.146-0.101
		l0.025-0.036c-0.26-1.097,1.233-1.825,1.361-3.186c-0.121-0.026-0.196-0.003-0.426,0.251c-0.563,0.661-1.307,1.667-1.388,2.616
		c-0.38-0.337-0.768-0.762-0.981-1.256c-0.042-0.458-0.102-1.023-0.154-1.561c0.217-0.646,0.876-1.261,1.358-1.678
		c-0.167,0.127-0.912,0.187-1.425,0.818c-0.019-0.19-0.014-0.348-0.024-0.494C8.624,86.249,8.62,85.363,8.715,84.481z M7.357,92.355
		c-0.598-0.357-0.776-1.431-0.75-1.515c0.095-0.23,0.091-0.512,0.068-0.759c-0.016-0.431-0.245-1.427-0.343-1.55
		c-0.175-0.251-0.184-0.599-0.147-0.887c0.031-0.37,0.096-0.614,0.266-0.919c0.312-0.568,0.244-2.052,0.217-2.068
		c-0.203-0.233-0.42,0.177-0.42,0.25c0,0,0.039,1.377-0.224,2.006c-0.134,0.317-0.286,0.508-0.332,0.879
		c-0.072,0.475,0.268,0.839,0.355,1.257c0.206,0.976-0.038,1.758-0.075,1.961c-0.016,0.111,1.028,2.313,1.337,2.976l0.012-0.014
		l0.03,0.468C4.607,92,5.552,90.182,5.454,90.029c-0.14-0.237-0.254-0.739-0.352-1c-0.228-0.729-0.173-1.511,0.049-2.242
		c0.176-0.552,0.401-1.156,0.252-1.725c-0.398-1.531,0.799-1.774,1.455-2.038c0.145,0.023,1.191,0.13,1.535,0.167
		c-0.182,0.461-0.045,1.039-0.105,1.54c-0.099,0.88-0.429,4.666,0.112,6.003C7.937,90.941,7.236,91.642,7.357,92.355z
		 M11.413,98.244c-0.074-1.414-2.242-1.901-2.339-1.979c-0.367-0.273-0.658-0.611-0.897-0.985c-0.482-0.745-0.302-1.54-0.419-2.376
		c-0.192-1.478,1.111-1.905,1.158-1.893l0.014-0.009l0.051,0.013c0.477,0.415,0.546,0.625,1.049,0.993
		c0.429,0.305,0.962,0.742,1.519,0.989c0.177,0.395,0.305,0.338,0.34,1.035c0.032,0.726-0.335,1.505-0.275,2.217
		c0.074,0.735,0.412,1.688,1.022,2.232C12.212,98.434,11.821,98.35,11.413,98.244z M67.999,110.484l0.035-0.01l-0.049,0.01H67.999z
		 M49.052,109.186L49.052,109.186l-0.026,0.023L49.052,109.186z M53.021,75.878l0.024-0.014L53.021,75.878z M89.513,81.98
		c0.879,1.898,0.23,1.869,0.09,2.026c-0.15,0.157-1.705,0.224-1.705,0.224c-1.709-0.05-3.352,0.073-5.051,0.026
		c-3.635-0.093-11.805-0.313-12.239-0.324c-0.174-0.003-0.262,0.021-0.369-0.094c-1.012-1.039-2.021-2.082-3.028-3.121
		c-1.234-1.25-2.446-2.516-3.663-3.767c-0.172-0.179-0.339-0.498-0.613-0.432c-2.127,0.545-2.24-1.3-2.31-1.29
		c-2.842,0.023-5.048-0.243-8.216,0.084c-0.471,0.052-1.179,0.404-1.622,0.344c-0.833-0.115-0.004-0.969,0.352-1.293
		c0.684-0.658,1.683-1.422,1.967-2.365c0.161-0.485,0.668-0.973,1.012-1.301c0.011-0.01,0.873,0.501,1.367,0.581
		c0.655,0.127,4.188,1.992,5.098,2.588c0.057,0.041-3.355-2.574-4.62-2.823c-0.545-0.109-1.063-0.279-1.427-0.655
		c0.755-0.56,2.526-0.616,2.491-0.67c0.094,0.103,2.602,2.058,3.354,3.078c0.025,0.014-1.622-2.116-2.521-2.948
		c-0.637-0.564-1.271-1.131-1.931-1.672c0.932-0.019,1.813,0.075,2.76,0.035c0.063,0,1.559,1.587,2.124,2.473
		c0.496,0.745,1.195,1.731,1.197,2.662c-0.002,0.136-0.438,0.752-0.41,1.208c0.058,0.759,0.617,0.76,0.8,1.377l0.419-0.251
		c-0.175-0.578-0.812-0.578-0.804-1.267c0.008-0.465,0.352-0.827,0.396-1.253c0.131-0.906-0.723-2.019-1.181-2.727
		c-0.985-1.541-2.128-3.002-3.326-4.4c5.5,0.533,10.997,1.181,16.509,1.629c1.207,0.09,2.611,3.125,2.672,3.63
		c-2.908-0.681-5.976-0.843-8.917-0.819c-1.146,0.014-2.929-0.127-4.033,0.133c-1.29,0.293-1.388,1.838-1.353,1.726
		c0,0,0.403-1.487,2.753-1.464c1.333,0.02,3.398,0.018,4.607,0.066c4.609,0.182,9.558,0.633,13.244,3.547
		C84.802,75.611,88.94,80.753,89.513,81.98z M67.61,129.663l-0.305,0.204L67.61,129.663z M72.606,129.229
		c0.342-0.197,0.648-0.451,0.965-0.688C73.276,128.831,72.948,129.055,72.606,129.229z M107.099,96.075
		c0.723-0.415,1.813-1.347,1.662-1.267c1.576-0.946,2.512,0.053,2.609,0.107c-0.039,0.012-0.459,0.508-0.662,0.734
		c-0.076,0.061-1.434,1.822-3.551,2.941c-1.281,0.682-6.502-1.1-4.643-3.793c0.266-0.215,0.639-0.244,0.729-0.288
		c-0.182,0.313-0.186,0.472-0.266,0.812c-0.178,0.72,0.547,1.13,1.084,0.919C104.396,96.375,105.907,96.856,107.099,96.075z
		 M109.022,80.624c-0.193-1.968-0.234-3.957-0.402-5.922c-0.17-1.99-0.4-3.975-0.643-5.949c-0.119-0.852-0.125-1.711-0.178-2.587
		c-0.08-0.916-0.414-3.686-0.727-4.378c0.389,0.377,1.357,1.073,1.393,1.109c-0.873-0.877-3.596-3.929-4.574-5.865
		c-0.787-1.354-1.426-2.766-1.803-4.209c3.156,0.549,7.35-0.088,8.959-0.75c2.236,4.487,3.41,9.555,4.146,14.489
		c0.336,2.241,0.361,4.546,0.332,6.803c-0.018,2.688-0.393,5.515-0.861,8.151c-0.414,2.319-1.047,4.648-2.256,6.725
		c-0.307,0.534-0.572,0.734-1.043,1.14c-1.041,0.862-2.088,1.232-3.385,2.296l-0.574,0.124c-0.453,0.27-0.697,1.246-0.961,1.708
		c-0.5,0.885-1.809,2.012-2.16,2.248c-0.418,0.285-0.951,0.262-0.896-0.681c0.021-0.369,3.529-5.555,3.881-6.054
		c0.309-0.421,0.621-0.878,1.068-1.14c0.203-0.12,0.451-0.25,0.572-0.454C109.392,86.519,109.124,81.63,109.022,80.624z
		 M107.937,88.13l0.256-0.167L107.937,88.13z M72.368,89.895c-0.229,0.19-0.49,0.297-0.781,0.317
		C71.864,90.152,72.142,90.052,72.368,89.895z M74.925,128.093l-0.193,0.129l0.152-0.105l0.057-0.037L74.925,128.093z
		 M86.909,123.417c-0.145,1.347-1.662,3.252-1.896,3.539c-1.584,1.929-3.803,1.905-4.035,1.114c-0.15-0.479,1.105-1.468,1.432-1.939
		c0.627-0.955,0.504-2.116,0.504-2.089c-0.07,0.843-0.861,1.762-1.398,2.359c-0.498,0.578-0.994,1.233-1.271,1.374
		c-0.277,0.178-0.701,0.213-0.918-0.104c-0.361-0.659,0.105-0.846,0.018-0.786c1.748-0.835,2.225-1.722,2.27-2.653
		c-0.002,0.124-0.658,1.694-2.088,2.263c-0.375,0.141-0.502,0.234-0.674,0.552c-1.24-0.651-0.189-1.083,1.252-1.936
		c0.025-0.023,0.658-0.504,1.115-1.019c1.07-1.171,0.813-2.832,0.297-4.192c-0.283-0.762-0.582-1.493-0.822-2.285
		c-0.652-2.148-1.221-4.5-2.398-6.438c-0.236-0.428-0.504-0.858-0.557-1.352c-0.053-0.432-0.08-1.855,0.111-2.129
		c0.193-0.332,1.328-2.1,1.871-2.504l0.012-0.014c1.064,1.939,4.545,2.076,5.371,2.336c2.488,0.779,2.686,2.954,2.643,3.738
		c-0.041,0.873-0.455,1.657-0.701,2.477c-0.496,1.704-1.439,3.355-1.33,5.159C85.78,119.884,86.999,122.548,86.909,123.417z
		 M87.489,125.13c-0.248,0.084-0.293-0.104-0.301-0.277c1.461-2.015-0.393-5.514-0.367-5.941c0.031-0.933,0.662-4.634,0.879-5.553
		c0.277-1.193,0.869-2.237,0.623-3.491c-0.244-1.261-1.342-2.176-2.463-2.703c-0.568-0.271-4.479-0.599-5.705-2.662
		c0-0.025,0.357-0.287-1.641-2.295c-0.811-0.826-1.617-1.679-2.432-2.504c-0.684-4.642-3.791-7.368-3.791-7.368l0.002-0.014
		l-0.002,0.014h-0.014c-0.35-0.732-0.752-1.414-1.238-2.076c0.523,0.026,1.05-0.101,1.443-0.411
		c0.705,0.224,1.457,0.364,2.188,0.478c1.889,0.261,3.771,0.521,5.684,0.726c2.012,0.224,3.996,0.435,6.006,0.581
		c1.994,0.141,3.982,0.135,5.971,0.174c1.865,0.027,3.742,0.033,5.621-0.073c1.51-0.104,3.131-0.12,4.57-0.605
		c3.137-1.035,5.029-5.326,5.537-5.006c0.34,0.217,0.09,1.304-0.26,1.514c-0.164,0.157-1.402,1.527-4.4,6.558
		c-0.051,0.01-1.719,0.184-1.746,1.962c-0.039,2.379,4.486,3.827,5.41,3.426c0,0.014,1.629-0.574,3.816-2.617
		c-0.465,0.815-0.932,1.661-1.227,2.537c-0.451,1.33-4.201,8.746-5.41,11.689c-0.572-1.182-1.396-2.165-2.498-2.876
		c-0.6-0.368-1.207-0.542-1.875-0.739c-0.695-0.225-1.893-0.545-2.25-1.267c-0.035-0.07-0.074-7.366-0.316-9.796
		c-0.08-0.822-0.535-2.376-1.08-3.014c-0.049-0.064,1.059,3.248,0.564,5.373c-0.178,0.756,0.172,3.586,0.32,5.969
		c-0.898-0.635-2.02-1.086-3.057-1.39c-1.051-0.318-1.09-1.925-1.096-2.771c-0.008-0.912,0.16-1.79,0.234-2.693
		c0.107-1.483-0.057-3.061-0.449-4.501c0.014,0.033,0.102,3.255,0.021,4.749c-0.047,0.905-0.229,1.784-0.238,2.68
		c0.006,0.919,0.076,2.381,1.109,2.784c1.088,0.414,2.557,0.986,3.496,1.708c0.016,0.34,0.063,0.676,0.027,0.996
		c-0.096,0.989,3.217,1.881,3.836,2.162c1.379,0.648,2.396,1.797,3.039,3.149c0-0.01-1.592,3.938-0.189,5.258
		C98.935,120.583,93.702,123.29,87.489,125.13z M121.481,95.72c-0.781,0.435-1.715,0.843-1.809,0.01
		c-0.025-0.391,1.236-3.961,1.629-5.401c0.842-3.211,2.105-9.829,2.264-9.785c0.203,0.05,0.953,0.337,1.43,0.284
		C124.698,84.16,122.612,93.401,121.481,95.72z M125.476,86.014c-0.859,3.259-1.584,4.081-1.496,3.697
		c0.689-3.296,1.65-5.004,1.949-8.372c0.252-0.067,0.461-0.138,0.602-0.185C126.212,83.05,125.966,84.173,125.476,86.014z
		 M129.698,95.349c-0.996-1.083,0.635-3.917,0.658-3.978c0.055,0.023,0.463-0.113,0.678-0.184l0.088-0.037l0.063-0.01
		C129.571,93.331,129.729,95.099,129.698,95.349z M134.128,84.658c-0.281,0.862-0.658,1.173-1.285,2.46
		c-0.096-0.087-0.131-0.237-0.113-0.418c-0.074-1.156,0.766-3.162,1.033-3.612c-0.014,0.013-1.09,0.37-2.547,7.764l-0.75,0.204
		c0.148-0.352,0.268-0.71,0.396-1.07c0.453-1.326,0.781-2.646,0.91-4.03c0.295-3.209,2.469-4.095,2.605-4.004
		C134.608,82.653,134.356,83.949,134.128,84.658z"/>
</g>
</svg>
